<svg xmlns="http://www.w3.org/2000/svg" viewBox="0 0 750 500"><g id="freepik--background-complete--inject-4"><rect x="251.02" y="44.3" width="135.61" height="108.42" transform="translate(-14.18 120) rotate(-20.86)" style="fill:#fafafa"></rect><path d="M362.88,23.71s-.2.09-.6.24l-1.77.69-6.86,2.64-25.91,9.93-91.51,35,.12-.27L275,173.23h0l-.29-.14,126.73-48.26-.11.25c-11.59-30.55-21.21-55.86-27.92-73.55-3.35-8.86-6-15.8-7.78-20.54-.89-2.37-1.57-4.19-2-5.42s-.69-1.87-.69-1.87.25.61.72,1.82l2.06,5.36,7.86,20.47L401.67,125l.07.18-.18.07L274.85,173.53l-.21.08-.09-.21h0L236,72.08l-.08-.19.19-.08L327.79,37l25.91-9.81,6.84-2.58,1.75-.66Z" style="fill:#e0e0e0"></path><rect x="255.7" y="51.28" width="126.09" height="94.77" transform="translate(-14.24 119.98) rotate(-20.86)" style="fill:#f5f5f5"></rect><polygon points="277.24 165.28 297.41 94.55 336.03 119.27 346.3 94.27 395.06 120.37 277.24 165.28" style="fill:#ebebeb"></polygon><path d="M331.15,74a9.93,9.93,0,1,1-12.81-5.74A9.92,9.92,0,0,1,331.15,74Z" style="fill:#ebebeb"></path><rect x="559.44" y="192.88" width="127.57" height="101.99" transform="translate(-41.39 165.33) rotate(-14.63)" style="fill:#fafafa"></rect><path d="M672.06,178.43l-.59.16-1.72.46-6.69,1.77-25.24,6.64-89.15,23.38.14-.24c7.67,29.37,16.47,63,25.78,98.67h0l-.27-.15,123.45-32.19-.13.21c-7.73-29.74-14.13-54.4-18.61-71.63l-5.17-20c-.59-2.31-1-4.07-1.35-5.27s-.46-1.82-.46-1.82.17.59.48,1.77.78,2.94,1.39,5.23c1.21,4.6,3,11.34,5.25,19.94,4.53,17.24,11,41.92,18.82,71.69l0,.18-.17,0L574.44,309.54l-.21.06-.05-.21h0c-9.3-35.64-18.08-69.31-25.74-98.68l-.05-.19.19,0,89.31-23.21,25.23-6.54,6.66-1.71,1.71-.44Z" style="fill:#e0e0e0"></path><rect x="563.84" y="199.33" width="118.61" height="89.15" transform="translate(-41.4 165.31) rotate(-14.63)" style="fill:#ebebeb"></rect><polygon points="577.02 302.01 603.11 237.93 636.7 264.99 648.85 242.66 691.78 272.05 577.02 302.01" style="fill:#e0e0e0"></polygon><path d="M636.76,222.13a9.34,9.34,0,1,1-11.39-6.68A9.32,9.32,0,0,1,636.76,222.13Z" style="fill:#e0e0e0"></path><rect x="398.18" y="68.43" width="101.99" height="127.57" transform="translate(226.32 544.01) rotate(-77.98)" style="fill:#fafafa"></rect><path d="M522.18,95.62l-.6-.12-1.74-.36-6.77-1.41-25.54-5.39-90.16-19.1.22-.14c-6.31,29.69-13.55,63.73-21.21,99.75h0l-.17-.26L501,195.2l-.21.14c6.44-30.06,11.77-55,15.5-72.37,1.88-8.71,3.35-15.54,4.35-20.2l1.15-5.32.41-1.83s-.11.61-.36,1.8-.62,3-1.11,5.3c-1,4.65-2.41,11.48-4.25,20.17l-15.34,72.52,0,.18-.17,0L376.12,169l-.21,0,0-.21h0c7.68-36,14.93-70.06,21.26-99.74l0-.19.19,0,90.24,19.31,25.48,5.47,6.72,1.46,1.72.38Z" style="fill:#e0e0e0"></path><rect x="404.52" y="72.89" width="89.15" height="118.61" transform="translate(226.28 543.92) rotate(-77.98)" style="fill:#ebebeb"></rect><polygon points="381.81 163.45 433.87 117.87 451.75 157.13 472.63 142.62 497.82 188.15 381.81 163.45" style="fill:#e0e0e0"></polygon><path d="M471,118.85a9.34,9.34,0,1,1-7.19-11.08A9.34,9.34,0,0,1,471,118.85Z" style="fill:#e0e0e0"></path><rect x="590.05" y="268.05" width="78.87" height="98.66" transform="translate(203.86 879.36) rotate(-79.62)" style="fill:#fafafa"></rect><path d="M685.12,287.47l-.47-.07-1.35-.24-5.27-1-19.86-3.6-70.12-12.77.17-.12C584,292.81,579.15,319.28,574,347.3h0l-.14-.19,97,17.81-.16.11c4.31-23.37,7.89-42.75,10.39-56.28,1.25-6.78,2.24-12.09,2.91-15.71.34-1.81.6-3.2.77-4.14s.28-1.43.28-1.43l-.24,1.41c-.17.93-.42,2.31-.74,4.11-.65,3.62-1.61,8.93-2.84,15.69L671,365.08l0,.14-.14,0-97-17.75-.16,0,0-.17h0c5.14-28,10-54.49,14.23-77.57l0-.15.15,0,70.18,12.93,19.82,3.67,5.23,1,1.33.25Z" style="fill:#e0e0e0"></path><rect x="594.96" y="271.5" width="68.94" height="91.73" transform="translate(203.82 879.29) rotate(-79.62)" style="fill:#f5f5f5"></rect><polygon points="578.1 343 617.34 306.63 632.03 336.57 647.85 324.9 668.33 359.54 578.1 343" style="fill:#ebebeb"></polygon><path d="M646.09,306.56a7.22,7.22,0,1,1-5.8-8.41A7.22,7.22,0,0,1,646.09,306.56Z" style="fill:#ebebeb"></path><rect x="81.11" y="239.33" width="98.66" height="78.87" transform="translate(-42.04 23.86) rotate(-9.01)" style="fill:#fafafa"></rect><path d="M173,232.09l-.47.08-1.36.23-5.28.85L146,236.45,75.57,247.68l.12-.17c3.68,23.19,7.9,49.77,12.37,77.89h0l-.19-.14,97.45-15.42-.12.16c-3.69-23.48-6.75-42.94-8.89-56.54-1.06-6.81-1.9-12.14-2.47-15.79-.28-1.81-.49-3.21-.64-4.15s-.21-1.44-.21-1.44.08.47.23,1.4.38,2.32.68,4.13c.58,3.63,1.44,8.95,2.53,15.74,2.17,13.62,5.29,33.1,9,56.61l0,.13-.14,0L87.92,325.6l-.16,0,0-.17h0c-4.45-28.13-8.66-54.71-12.33-77.9l0-.15.14,0,70.5-11.1,19.91-3.12,5.26-.81,1.35-.21Z" style="fill:#e0e0e0"></path><rect x="84.51" y="244.3" width="91.73" height="68.94" transform="translate(-42.04 23.85) rotate(-9.01)" style="fill:#f5f5f5"></rect><polygon points="90.48 320 115.41 272.66 139.21 296.03 150.26 279.77 181.07 305.64 90.48 320" style="fill:#ebebeb"></polygon><circle cx="135.38" cy="264.18" r="7.22" transform="translate(-161.34 255.33) rotate(-61.16)" style="fill:#ebebeb"></circle></g><g id="freepik--Plant--inject-4"><path d="M663.62,377.87a9,9,0,0,0-6.21,3.25,15.75,15.75,0,0,0-3.12,6.43c-1.17,4.5-.38,9.79.94,14.25,4.84-1.78,7.8-7,9.13-9.73,2.1-4.32,3.28-13.42-.74-14.2" style="fill:#198764"></path><path d="M648.28,407.3a7.65,7.65,0,0,0,.29-7.66,10.14,10.14,0,0,0-6.15-4.86,4.31,4.31,0,0,0-3.59.2,3.29,3.29,0,0,0-1.23,3.08,6.67,6.67,0,0,0,1.42,3.13c2.4,3.18,5.29,5.81,9.26,6.11" style="fill:#198764"></path><path d="M648.28,421.41a18.18,18.18,0,0,0,.63-2.24,32.62,32.62,0,0,0,.23-8.77,16.43,16.43,0,0,0-3.29-8.12,10.77,10.77,0,0,0-1.91-1.87,3.09,3.09,0,0,0-.84-.52,23,23,0,0,1,2.46,2.61,17.23,17.23,0,0,1,3.06,8,37.67,37.67,0,0,1-.07,8.66" style="fill:#263238"></path><path d="M648.26,421.49c.38-1.06.88-2.45,1.49-4.12,1.26-3.48,3-8.29,5-13.57s3.87-10,5.23-13.48c.66-1.66,1.2-3,1.61-4.08a9.83,9.83,0,0,0,.53-1.52,9.94,9.94,0,0,0-.72,1.44c-.43.95-1,2.32-1.76,4-1.45,3.41-3.37,8.15-5.37,13.43s-3.69,10.12-4.86,13.64c-.58,1.75-1,3.18-1.34,4.17" style="fill:#263238"></path><path d="M653.56,412.34a17.87,17.87,0,0,1,13.76-8.77c1.44-.12,3.17.1,3.82,1.39s-.18,2.82-1.15,3.89a15.25,15.25,0,0,1-16.48,3.88" style="fill:#198764"></path><path d="M665.19,407.46a3.37,3.37,0,0,0-.94,0,7.11,7.11,0,0,0-1.08.13,12.29,12.29,0,0,0-1.43.3,18.67,18.67,0,0,0-3.56,1.3,21.67,21.67,0,0,0-3.92,2.49A22,22,0,0,0,651,415a18.71,18.71,0,0,0-2,3.22c-.25.48-.41.94-.58,1.34a7.39,7.39,0,0,0-.35,1c-.17.58-.05.79,0,.8s.28-1.13,1.28-3a20.79,20.79,0,0,1,2-3.09,21.09,21.09,0,0,1,7-5.69,20.77,20.77,0,0,1,3.45-1.38C663.87,407.66,665.2,407.57,665.19,407.46Z" style="fill:#263238"></path></g><g id="freepik--Floor--inject-4"><path d="M692.75,421.41c0,.15-142.27.26-317.74.26s-317.76-.11-317.76-.26,142.24-.26,317.76-.26S692.75,421.27,692.75,421.41Z" style="fill:#263238"></path></g><g id="freepik--Album--inject-4"><rect x="163.29" y="108.43" width="460.17" height="312.54" rx="14.84" style="fill:#198764"></rect><rect x="396.95" y="122.82" width="209.47" height="283.76" transform="translate(1003.37 529.4) rotate(180)" style="fill:#198764"></rect><rect x="396.95" y="122.82" width="209.47" height="283.76" transform="translate(1003.37 529.4) rotate(180)" style="fill:#fafafa;opacity:0.9"></rect><rect x="398.65" y="122.82" width="15.15" height="283.76" transform="translate(812.44 529.4) rotate(180)" style="fill:#198764"></rect><rect x="398.65" y="122.82" width="15.15" height="283.76" transform="translate(812.44 529.4) rotate(180)" style="fill:#fafafa;opacity:0.7000000000000001"></rect><rect x="175.95" y="123.8" width="215.06" height="283.76" style="fill:#198764"></rect><rect x="175.95" y="123.8" width="215.06" height="283.76" style="fill:#fafafa;opacity:0.9"></rect><rect x="375.46" y="123.8" width="15.55" height="283.76" style="fill:#198764"></rect><rect x="375.46" y="123.8" width="15.55" height="283.76" style="fill:#fafafa;opacity:0.7000000000000001"></rect><path d="M408.49,390.68c-.36,1.43-6.77,1-14.48,1.33s-14.07,1.16-14.53-.24c-.2-.68,1.19-1.81,3.77-2.86a34.11,34.11,0,0,1,21.26-.8C407.16,389,408.64,390,408.49,390.68Z" style="fill:#263238"></path><path d="M408.49,374c-.36,1.44-6.77,1-14.48,1.34s-14.07,1.16-14.53-.25c-.2-.67,1.19-1.81,3.77-2.86a34.21,34.21,0,0,1,21.26-.79C407.16,372.26,408.64,373.29,408.49,374Z" style="fill:#263238"></path><path d="M408.49,357.27c-.36,1.44-6.77,1-14.48,1.34s-14.07,1.15-14.53-.25c-.2-.67,1.19-1.81,3.77-2.86a34.11,34.11,0,0,1,21.26-.8C407.16,355.56,408.64,356.58,408.49,357.27Z" style="fill:#263238"></path><path d="M408.49,340.57c-.36,1.43-6.77,1-14.48,1.33s-14.07,1.16-14.53-.24c-.2-.68,1.19-1.81,3.77-2.86a34.11,34.11,0,0,1,21.26-.8C407.16,338.85,408.64,339.88,408.49,340.57Z" style="fill:#263238"></path><path d="M408.49,323.86c-.36,1.44-6.77,1-14.48,1.34s-14.07,1.16-14.53-.25c-.2-.67,1.19-1.81,3.77-2.85a34.11,34.11,0,0,1,21.26-.8C407.16,322.15,408.64,323.18,408.49,323.86Z" style="fill:#263238"></path><path d="M408.49,307.16c-.36,1.44-6.77,1-14.48,1.34s-14.07,1.16-14.53-.25c-.2-.67,1.19-1.81,3.77-2.86a34,34,0,0,1,21.26-.79C407.16,305.45,408.64,306.48,408.49,307.16Z" style="fill:#263238"></path><path d="M408.49,290.46c-.36,1.43-6.77,1-14.48,1.34s-14.07,1.15-14.53-.25c-.2-.67,1.19-1.81,3.77-2.86a34.11,34.11,0,0,1,21.26-.8C407.16,288.74,408.64,289.77,408.49,290.46Z" style="fill:#263238"></path><path d="M408.49,273.76c-.36,1.43-6.77,1-14.48,1.33s-14.07,1.16-14.53-.24c-.2-.68,1.19-1.81,3.77-2.86a34.11,34.11,0,0,1,21.26-.8C407.16,272,408.64,273.07,408.49,273.76Z" style="fill:#263238"></path><path d="M408.49,257.05c-.36,1.44-6.77,1-14.48,1.34s-14.07,1.16-14.53-.25c-.2-.67,1.19-1.81,3.77-2.86a34.21,34.21,0,0,1,21.26-.79C407.16,255.34,408.64,256.37,408.49,257.05Z" style="fill:#263238"></path><path d="M408.49,240.35c-.36,1.44-6.77,1-14.48,1.34s-14.07,1.15-14.53-.25c-.2-.67,1.19-1.81,3.77-2.86a34.11,34.11,0,0,1,21.26-.8C407.16,238.64,408.64,239.66,408.49,240.35Z" style="fill:#263238"></path><path d="M408.49,223.65c-.36,1.43-6.77,1-14.48,1.33s-14.07,1.16-14.53-.24c-.2-.68,1.19-1.81,3.77-2.86a34.11,34.11,0,0,1,21.26-.8C407.16,221.93,408.64,223,408.49,223.65Z" style="fill:#263238"></path><path d="M408.49,206.94c-.36,1.44-6.77,1-14.48,1.34s-14.07,1.16-14.53-.25c-.2-.67,1.19-1.81,3.77-2.85a34.11,34.11,0,0,1,21.26-.8C407.16,205.23,408.64,206.26,408.49,206.94Z" style="fill:#263238"></path><path d="M408.49,190.24c-.36,1.44-6.77,1-14.48,1.34s-14.07,1.16-14.53-.25c-.2-.67,1.19-1.81,3.77-2.86a34,34,0,0,1,21.26-.79C407.16,188.53,408.64,189.56,408.49,190.24Z" style="fill:#263238"></path><path d="M408.49,173.77c-.36,1.44-6.77,1-14.48,1.34s-14.07,1.16-14.53-.25c-.2-.67,1.19-1.81,3.77-2.86a34.21,34.21,0,0,1,21.26-.79C407.16,172.06,408.64,173.09,408.49,173.77Z" style="fill:#263238"></path><path d="M408.49,157.3c-.36,1.44-6.77,1-14.48,1.34s-14.07,1.16-14.53-.25c-.2-.67,1.19-1.81,3.77-2.85a34.11,34.11,0,0,1,21.26-.8C407.16,155.59,408.64,156.62,408.49,157.3Z" style="fill:#263238"></path><path d="M408.49,140.84c-.36,1.43-6.77,1-14.48,1.33s-14.07,1.16-14.53-.24c-.2-.68,1.19-1.81,3.77-2.86a34.11,34.11,0,0,1,21.26-.8C407.16,139.12,408.64,140.15,408.49,140.84Z" style="fill:#263238"></path></g><g id="freepik--Photo--inject-4"><rect x="202.3" y="282.29" width="141.52" height="101.41" transform="translate(-14.7 12.61) rotate(-2.58)" style="fill:#fafafa"></rect><rect x="209.96" y="290.11" width="126.2" height="85.77" transform="translate(-14.7 12.61) rotate(-2.58)" style="fill:#e0e0e0"></rect><path d="M208.81,317.25c5.87-4.72,13.09-8.63,20.58-7.83,8,.85,14.41,6.78,20.71,11.83s14.29,9.68,22,7.41c5.9-1.73,9.91-7,14.44-11.15a27.77,27.77,0,0,1,10.23-6.28,15.58,15.58,0,0,1,11.77.74c2.46,1.3,4.4,3.37,6.59,5.09s4.85,3.17,7.61,2.85c3.83-.44,6.43-4,9.69-6l2.82-1.89.38,13.42L279.82,347.2l-69.49-4.66Z" style="fill:#263238"></path><path d="M210.11,335.62c10.86-6.79,23.4-8.08,35.76-4.69,8.65,2.38,16.69,7.27,25.64,7.89,11,.76,21.3-5,31.33-9.73s22.86-8.49,32.82-3.68L338,373,212,378.67Z" style="fill:#455a64"></path><path d="M311.56,302.73c-3.05-.36-5.48.28-7.32,2.14a10.79,10.79,0,0,0-3.08,6,9.9,9.9,0,0,0-.15,4.95A7.44,7.44,0,0,0,304.5,320a10.27,10.27,0,0,0,10.65-.26,9.78,9.78,0,0,0,4.07-9.77,9.3,9.3,0,0,0-7.66-7.22" style="fill:#ebebeb"></path><path d="M309.62,334.12c-.14,0-.26-5.34-.26-11.94s.12-11.94.26-11.94.26,5.35.26,11.94S309.76,334.12,309.62,334.12Z" style="fill:#263238"></path><path d="M314.77,313.18a10.75,10.75,0,0,1-2.48,2.19,10.53,10.53,0,0,1-2.78,1.78,21,21,0,0,1,5.26-4Z" style="fill:#263238"></path><path d="M239.09,304.7c-3.06-.37-5.48.28-7.33,2.13a10.89,10.89,0,0,0-3.08,6,9.94,9.94,0,0,0-.15,5,7.43,7.43,0,0,0,3.49,4.15,10.25,10.25,0,0,0,10.65-.26,9.73,9.73,0,0,0,4.07-9.77,9.27,9.27,0,0,0-7.65-7.21" style="fill:#455a64"></path><path d="M237.14,336.09c-.14,0-.26-5.35-.26-11.94s.12-11.94.26-11.94.26,5.34.26,11.94S237.29,336.09,237.14,336.09Z" style="fill:#263238"></path><path d="M242.29,315.15a21,21,0,0,1-5.26,4,20.39,20.39,0,0,1,5.26-4Z" style="fill:#263238"></path><path d="M287.19,319a5,5,0,0,0-4.41,1.28,6.51,6.51,0,0,0-1.85,3.62,5.91,5.91,0,0,0-.1,3,4.48,4.48,0,0,0,2.11,2.5,6.14,6.14,0,0,0,6.4-.16,5.85,5.85,0,0,0,2.46-5.88,5.59,5.59,0,0,0-4.61-4.34" style="fill:#455a64"></path><path d="M286,337.93a48.86,48.86,0,0,1-.26-7.19,48.86,48.86,0,0,1,.26-7.19,50.58,50.58,0,0,1,.26,7.19A50.58,50.58,0,0,1,286,337.93Z" style="fill:#263238"></path><path d="M289.11,325.32c.09.11-.55.74-1.42,1.4s-1.65,1.1-1.74,1,.55-.74,1.43-1.4S289,325.2,289.11,325.32Z" style="fill:#263238"></path><path d="M295,342a6.68,6.68,0,0,0-5.89,1.71,8.69,8.69,0,0,0-2.47,4.82,7.91,7.91,0,0,0-.12,4,6,6,0,0,0,2.8,3.34,8.24,8.24,0,0,0,8.55-.21,7.82,7.82,0,0,0,3.27-7.85A7.46,7.46,0,0,0,295,342" style="fill:#e0e0e0"></path><path d="M293.41,367.18a89.72,89.72,0,0,1-.26-9.59,89.72,89.72,0,0,1,.26-9.59,86.68,86.68,0,0,1,.26,9.59A86.68,86.68,0,0,1,293.41,367.18Z" style="fill:#263238"></path><path d="M297.55,350.36c.08.12-.79.92-2,1.8a7.12,7.12,0,0,1-2.27,1.39c-.08-.12.79-.92,2-1.8A7,7,0,0,1,297.55,350.36Z" style="fill:#263238"></path><path d="M226.19,339.14a6.69,6.69,0,0,0-5.89,1.71,8.72,8.72,0,0,0-2.47,4.82,7.91,7.91,0,0,0-.12,4,6,6,0,0,0,2.8,3.34,8.24,8.24,0,0,0,8.55-.21,7.83,7.83,0,0,0,3.28-7.84,7.47,7.47,0,0,0-6.15-5.8" style="fill:#e0e0e0"></path><path d="M224.62,364.35a89.72,89.72,0,0,1-.26-9.59,89.72,89.72,0,0,1,.26-9.59,85.09,85.09,0,0,1,.27,9.59A85.09,85.09,0,0,1,224.62,364.35Z" style="fill:#263238"></path><path d="M228.76,347.53c.08.12-.79.92-2,1.8a6.6,6.6,0,0,1-2.27,1.39c-.08-.11.79-.92,2-1.8A7,7,0,0,1,228.76,347.53Z" style="fill:#263238"></path><path d="M324.15,327.6a6.37,6.37,0,0,0-5.63,1.64,8.35,8.35,0,0,0-2.37,4.6,7.58,7.58,0,0,0-.11,3.81,5.69,5.69,0,0,0,2.68,3.19,7.86,7.86,0,0,0,8.18-.2,7.5,7.5,0,0,0,3.13-7.5,7.15,7.15,0,0,0-5.88-5.54" style="fill:#ebebeb"></path><path d="M322.65,351.71a82.17,82.17,0,0,1-.26-9.17,82.29,82.29,0,0,1,.26-9.18,82.29,82.29,0,0,1,.26,9.18A82.17,82.17,0,0,1,322.65,351.71Z" style="fill:#263238"></path><path d="M326.6,335.62c.09.12-.74.89-1.86,1.73a6.08,6.08,0,0,1-2.18,1.32c-.08-.11.75-.89,1.87-1.73A6.57,6.57,0,0,1,326.6,335.62Z" style="fill:#263238"></path><path d="M263.28,327.6a6.38,6.38,0,0,0-5.63,1.64,8.33,8.33,0,0,0-2.36,4.6,7.59,7.59,0,0,0-.12,3.81,5.71,5.71,0,0,0,2.69,3.19,7.85,7.85,0,0,0,8.17-.2,7.48,7.48,0,0,0,3.13-7.5,7.13,7.13,0,0,0-5.88-5.54" style="fill:#ebebeb"></path><path d="M261.79,351.71a79.38,79.38,0,0,1-.26-9.17,79.49,79.49,0,0,1,.26-9.18,82.29,82.29,0,0,1,.26,9.18A82.17,82.17,0,0,1,261.79,351.71Z" style="fill:#263238"></path><path d="M265.74,335.62c.09.12-.75.89-1.86,1.73s-2.09,1.44-2.18,1.32.75-.89,1.86-1.73A6.56,6.56,0,0,1,265.74,335.62Z" style="fill:#263238"></path><polygon points="320.32 382.35 324.29 389.21 360.64 364.28 355.35 358.52 320.32 382.35" style="fill:#198764"></polygon><polygon points="320.32 382.35 324.29 389.21 360.64 364.28 355.35 358.52 320.32 382.35" style="fill:#fafafa;opacity:0.4"></polygon><polygon points="187.92 295.77 191.23 302.97 229.76 281.56 225.03 275.33 187.92 295.77" style="fill:#198764"></polygon><polygon points="187.92 295.77 191.23 302.97 229.76 281.56 225.03 275.33 187.92 295.77" style="fill:#fafafa;opacity:0.4"></polygon></g><g id="freepik--character-2--inject-4"><path d="M458.33,164.71v169.5H565.07V164.71Zm99,140.16v19.68H466V172.49h91.34Z" style="fill:#fafafa"></path><path d="M466,313.27a52.65,52.65,0,0,1,10.4-31.78c5.33-7.05,12.94-13.4,23.28-14.34l-2.14-28.52c-2.38.84-7.15,1.45-8.06-4.89-.78-5.51,2-7.25,4.11-7.77l-.19-.46h0c-1-2.62-2.3-5.2-2.47-8a9.5,9.5,0,0,1,2.71-7.64c2.48-2.22,6.13-2.39,9.44-2.19a8.36,8.36,0,0,1,2.82-7,12.47,12.47,0,0,1,7.1-3c2.35-.25,4.81,0,7-.92s3.73-2.82,5.81-3.86a4.25,4.25,0,0,1,4.38,0,3.83,3.83,0,0,1,1,4.27,11.35,11.35,0,0,1-2.67,3.81,3.79,3.79,0,1,1,2.52,6.88,3.33,3.33,0,0,1,3.79,2.72A4.83,4.83,0,0,1,533,215c.5,7.31,1.38,21.42,1.29,28.71-.12,9.92-9.84,11.63-10.22,11.69v.39c.07,1.17.27,4.88.47,9l.49,0s31-.68,32.32,40.08V172.49H466Z" style="fill:#455a64"></path><path d="M525.05,264.79l-.49,0c0,.72.07,1.45.11,2.18a12.45,12.45,0,0,1-24.86,1.53l-.1-1.4c-10.34.94-17.95,7.29-23.28,14.34A52.65,52.65,0,0,0,466,313.27v11.28h91.34V304.87C556.07,264.11,525.05,264.79,525.05,264.79Z" style="fill:#e0e0e0"></path><path d="M513.22,280a12.45,12.45,0,0,0,11.45-13c0-.73-.07-1.46-.11-2.18-.2-4.15-.4-7.86-.47-9l0,2.09c-10.09.91-13.21-6.37-13.21-6.37a23.53,23.53,0,0,0,13.19,3.75v.14c.38-.06,10.1-1.77,10.22-11.69.09-7.29-.79-21.4-1.29-28.71l-.2.18a11.7,11.7,0,0,1-4.86,1.72c-10.53,2.21-18.32-3.49-23.81-3.7s-4.65,6.09-4.65,6.09l1.22,15-2.65.21c-.91-3.61-2.23-8.78-2.23-8.78a6.8,6.8,0,0,0-2.22.2c-2.12.52-4.89,2.26-4.11,7.77.91,6.34,5.68,5.73,8.06,4.89l2.14,28.52.1,1.4A12.45,12.45,0,0,0,513.22,280Zm2.37-51.32a1.47,1.47,0,1,1-.49-2A1.47,1.47,0,0,1,515.59,228.7Zm15.19-1a1.47,1.47,0,1,1-.1-2.07A1.47,1.47,0,0,1,530.78,227.67Zm-2.55-3a3.45,3.45,0,0,1,4.07.05c.44.35.59.67.51.75s-1.15-.59-2.55-.6-2.4.71-2.55.53S527.79,225,528.23,224.67Zm-5.78,1.41c.2-.08,1.6,3.12,3.12,7.16l1,2.85a2.32,2.32,0,0,1,.19,1.51,1,1,0,0,1-.62.59,2.56,2.56,0,0,1-.62.08,6.82,6.82,0,0,1-2.31-.08,6.65,6.65,0,0,1,2.26-.48c.36,0,.65-.12.67-.32a1.88,1.88,0,0,0-.26-1l-1.1-2.83C523.31,229.48,522.24,226.15,522.45,226.08Zm3.12,15.63a3.85,3.85,0,0,1-4.54,1.53c-3-1.11-2.29-3.51-2.29-3.51C517.29,238.86,522.73,241.85,525.57,241.71ZM513.1,225.9a3.45,3.45,0,0,1,4.07,0c.43.35.58.67.51.74s-1.15-.59-2.55-.59-2.4.71-2.56.53S512.66,226.24,513.1,225.9Zm-17.44,9.91a1.64,1.64,0,0,1-1.33.42c-1.28-.19-2.39-1.67-2.69-3.38a5.1,5.1,0,0,1,.18-2.45,2.12,2.12,0,0,1,1.36-1.54,1.11,1.11,0,0,1,.85.1.94.94,0,0,1,.42.48c.12.35,0,.53-.05.52s0-.19-.16-.41a.76.76,0,0,0-.94-.28,1.7,1.7,0,0,0-.95,1.29,5,5,0,0,0-.12,2.19c.26,1.53,1.23,2.85,2.17,3.06a1.56,1.56,0,0,0,1.11-.18c.24-.15.33-.3.37-.28S495.89,235.56,495.66,235.81Z" style="fill:#ebebeb"></path><path d="M528.6,225.7a1.47,1.47,0,1,0,2.08-.1A1.47,1.47,0,0,0,528.6,225.7Z" style="fill:#263238"></path><path d="M530.26,224.87c1.4,0,2.39.77,2.55.6s-.07-.4-.51-.75a3.45,3.45,0,0,0-4.07-.05c-.44.34-.6.65-.52.73S528.87,224.84,530.26,224.87Z" style="fill:#263238"></path><path d="M515.1,226.68a1.47,1.47,0,1,0,.49,2A1.47,1.47,0,0,0,515.1,226.68Z" style="fill:#263238"></path><path d="M515.13,226.1c1.4,0,2.39.77,2.55.59s-.08-.39-.51-.74a3.45,3.45,0,0,0-4.07,0c-.44.34-.6.65-.53.73S513.74,226.07,515.13,226.1Z" style="fill:#263238"></path><path d="M525.93,236.35a1.88,1.88,0,0,1,.26,1c0,.2-.31.28-.67.32a6.65,6.65,0,0,0-2.26.48,6.82,6.82,0,0,0,2.31.08,2.56,2.56,0,0,0,.62-.08,1,1,0,0,0,.62-.59,2.32,2.32,0,0,0-.19-1.51l-1-2.85c-1.52-4-2.92-7.24-3.12-7.16s.86,3.4,2.38,7.44Z" style="fill:#263238"></path><path d="M521,243.24a3.85,3.85,0,0,0,4.54-1.53c-2.84.14-8.28-2.85-6.83-2C518.74,239.73,518,242.13,521,243.24Z" style="fill:#fff"></path><path d="M510.9,251.53s3.12,7.28,13.21,6.37l0-2.09v-.53A23.53,23.53,0,0,1,510.9,251.53Z" style="fill:#e0e0e0"></path><path d="M495.84,225.77s1.32,5.17,2.23,8.78l2.65-.21-1.22-15s-.84-6.31,4.65-6.09,13.28,5.91,23.81,3.7a11.7,11.7,0,0,0,4.86-1.72l.2-.18a4.83,4.83,0,0,0,1.8-4.37,3.33,3.33,0,0,0-3.79-2.72,3.79,3.79,0,1,0-2.52-6.88,11.35,11.35,0,0,0,2.67-3.81,3.83,3.83,0,0,0-1-4.27,4.25,4.25,0,0,0-4.38,0c-2.08,1-3.66,3-5.81,3.86s-4.63.67-7,.92a12.47,12.47,0,0,0-7.1,3,8.36,8.36,0,0,0-2.82,7c-3.31-.2-7,0-9.44,2.19a9.5,9.5,0,0,0-2.71,7.64c.17,2.8,1.49,5.38,2.47,8h0l.19.46A6.8,6.8,0,0,1,495.84,225.77Z" style="fill:#263238"></path><path d="M495.51,235.63a1.56,1.56,0,0,1-1.11.18c-.94-.21-1.91-1.53-2.17-3.06a5,5,0,0,1,.12-2.19,1.7,1.7,0,0,1,.95-1.29.76.76,0,0,1,.94.28c.15.22.12.4.16.41s.17-.17.05-.52A.94.94,0,0,0,494,229a1.11,1.11,0,0,0-.85-.1,2.12,2.12,0,0,0-1.36,1.54,5.1,5.1,0,0,0-.18,2.45c.3,1.71,1.41,3.19,2.69,3.38a1.64,1.64,0,0,0,1.33-.42c.23-.25.25-.45.22-.46S495.75,235.48,495.51,235.63Z" style="fill:#e0e0e0"></path><polygon points="451.72 306.43 443.78 312.68 481.8 354.04 488.11 346.32 451.72 306.43" style="fill:#198764"></polygon><polygon points="451.72 306.43 443.78 312.68 481.8 354.04 488.11 346.32 451.72 306.43" style="fill:#fafafa;opacity:0.4"></polygon><polygon points="535.93 156.17 530.45 164.66 579.82 191.46 583.29 182.12 535.93 156.17" style="fill:#198764"></polygon><polygon points="535.93 156.17 530.45 164.66 579.82 191.46 583.29 182.12 535.93 156.17" style="fill:#fafafa;opacity:0.4"></polygon><polygon points="443.28 437.68 441.2 446.91 455.5 448.67 456.01 439.53 443.28 437.68" style="fill:#198764"></polygon><path d="M449.73,438.13a20.75,20.75,0,0,1-.47,4.24,21.1,21.1,0,0,1-.9,4.17,22.16,22.16,0,0,1,.48-4.24A20.7,20.7,0,0,1,449.73,438.13Z" style="fill:#263238"></path><path d="M455.55,447.67a11.35,11.35,0,0,1-2.07-.26l-5-.8c-1.93-.33-3.68-.65-4.94-.93a9.6,9.6,0,0,1-2-.56,10.33,10.33,0,0,1,2.07.26l5,.8c1.93.32,3.68.65,4.94.93A8.9,8.9,0,0,1,455.55,447.67Z" style="fill:#263238"></path><path d="M509.92,444.74l.4-7.6-14.23-.82-.69,11.1.88.11c3.91.45,19.92,2,22.59,1.34C521.85,448.16,509.92,444.74,509.92,444.74Z" style="fill:#198764"></path><path d="M500.57,447.61a5,5,0,0,0-1.64-3.14,4.81,4.81,0,0,0-3.27-1.22l-.23,4Z" style="fill:#198764"></path><path d="M515.74,446.62s4.17,1.46,3.6,2.13-16.81-.28-23.94-1.33l0-.31,18.94,1.27S514.91,446.6,515.74,446.62Z" style="fill:#198764"></path><path d="M495.22,447.09l.24,0,.7.08,2.58.26c2.18.21,5.19.45,8.53.65s6.36.31,8.54.36l2.59,0h.71l.24,0-.24,0-.7,0-2.59-.1c-2.19-.08-5.21-.21-8.54-.41s-6.35-.42-8.53-.6l-2.58-.21-.7-.05Z" style="fill:#263238"></path><path d="M514.36,448.6a5.88,5.88,0,0,1,.55-1.21,6.36,6.36,0,0,1,.94-.94,2.29,2.29,0,0,0-1.49,2.15Z" style="fill:#263238"></path><path d="M510.29,446.22s.25-.2.48-.52.38-.59.34-.62-.26.21-.48.52S510.25,446.19,510.29,446.22Z" style="fill:#263238"></path><path d="M509.17,445.55s.26-.1.52-.31.44-.4.41-.44-.26.1-.52.31S509.14,445.51,509.17,445.55Z" style="fill:#263238"></path><path d="M508.52,444.16a1.69,1.69,0,0,0,.74.14,1.59,1.59,0,0,0,.75,0,2,2,0,0,0-.74-.13A1.65,1.65,0,0,0,508.52,444.16Z" style="fill:#263238"></path><path d="M508.33,443.2a2,2,0,0,0,1.67.22,5.77,5.77,0,0,0-.84-.1A4.29,4.29,0,0,0,508.33,443.2Z" style="fill:#263238"></path><path d="M510.84,445a2.78,2.78,0,0,0,.92.05,5.83,5.83,0,0,0,1-.16,2.44,2.44,0,0,0,.57-.2.43.43,0,0,0,.24-.27.34.34,0,0,0-.11-.37,1.67,1.67,0,0,0-2.1.37,1.61,1.61,0,0,0-.34.59.64.64,0,0,0,0,.25,2.93,2.93,0,0,1,.47-.76,1.56,1.56,0,0,1,.81-.46,1.36,1.36,0,0,1,1.08.14c.14.11.07.28-.09.37a4.76,4.76,0,0,1-.53.19,9,9,0,0,1-1,.19C511.19,445,510.84,445,510.84,445Z" style="fill:#263238"></path><path d="M511.08,445.07a.93.93,0,0,0,.14-.63,1.48,1.48,0,0,0-.21-.68.91.91,0,0,0-.74-.51.35.35,0,0,0-.3.4,1,1,0,0,0,.13.42,2.45,2.45,0,0,0,.4.58c.27.3.49.42.5.4s-.17-.18-.41-.48a3.55,3.55,0,0,1-.35-.57c-.11-.2-.18-.55.05-.58s.45.23.58.42a1.54,1.54,0,0,1,.23.61A3.23,3.23,0,0,1,511.08,445.07Z" style="fill:#263238"></path><path d="M495.74,443.21s.41,0,1.05.1a4.49,4.49,0,0,1,3.55,3.19c.18.62.18,1,.21,1a.94.94,0,0,0,0-.29,5.26,5.26,0,0,0-.11-.78,4.46,4.46,0,0,0-1.32-2.2,4.39,4.39,0,0,0-2.33-1.07,4.59,4.59,0,0,0-.79,0A1,1,0,0,0,495.74,443.21Z" style="fill:#263238"></path><path d="M497.56,437.38a24.5,24.5,0,0,0-.3,2.91,28.4,28.4,0,0,0-.12,2.93,24.84,24.84,0,0,0,.3-2.92A25.17,25.17,0,0,0,497.56,437.38Z" style="fill:#263238"></path><path d="M502.44,446.33a8.39,8.39,0,0,0,2.06.33,7.69,7.69,0,0,0,2.09-.05c0-.05-.93-.05-2.08-.13S502.45,446.28,502.44,446.33Z" style="fill:#263238"></path><path d="M499.65,446.16s.06.2.15.42.12.41.17.41.09-.22,0-.47S499.68,446.13,499.65,446.16Z" style="fill:#263238"></path><path d="M498.68,444.79s0,.19.18.34.28.27.32.23-.05-.18-.19-.34S498.71,444.76,498.68,444.79Z" style="fill:#263238"></path><path d="M497.21,444.11c0,.05.19.06.4.14s.35.21.39.18-.07-.24-.33-.34S497.2,444.06,497.21,444.11Z" style="fill:#263238"></path><path d="M496.15,443.76c0,.05.06.12.18.18s.22.06.24,0-.06-.12-.17-.17S496.17,443.72,496.15,443.76Z" style="fill:#263238"></path><path d="M565.3,189.57a84.28,84.28,0,0,0,5.82-7.39c2.1-3.3,1.81-3.5,1.39-3.69-1.13-.51-3.9,5.65-4.07,4s4.26-7.12,3-7.6c-1.56-.63-4.35,5.88-4.62,6.41s-1,.13-.77-.33c.39-.67,4.36-7.83,2.83-8.46-.85-.35-1.31,1.26-1.31,1.26s-3.22,7-3.94,6.65,1-4.49,1.73-5.85.33-2.23-.51-2.05c-.57.12-2.79,4.23-3.44,5.59s-2.38,5.13-3,2.54-2.08-4.34-2.79-4.54-1.23.73-.72,1.38a9.72,9.72,0,0,1,1.11,2.44,6.38,6.38,0,0,1,.36,2.12c0,.63,0,1.18,0,1.68l-.25,5.3,6,4.14Z" style="fill:#ffbe9d"></path><path d="M482.43,189.06l-.1,33,14.16.67.41-8s5,1,6.32-3.67c.83-3,.62-26,.62-26Z" style="fill:#ffbe9d"></path><path d="M478.72,188.46c0,.17.09.33.14.48a3.25,3.25,0,0,0-.26-.27" style="fill:#263238"></path><path d="M503,179.88c-4.31,1.4-5.35,1.86-7.28,2s-15,.16-16.23,7.55l-.09.9v0s-2.83-1.14-2.09,4c.39,2.67,1.49,5.14,2.5,8.07.7,4.34-1.78,5.42-3.82,6.86-.5.35-1.11.8-1,1.4s.7.85,1.25.94a4.66,4.66,0,0,0,3.4-.79,17.17,17.17,0,0,1-1,1.85,1.48,1.48,0,0,0,.37,1.87,1.62,1.62,0,0,0,1.13.06,5.71,5.71,0,0,0,3-1.78,1.26,1.26,0,0,0,.48,1.6,3,3,0,0,0,1.78.39c2.8,0,6.17,0,8.75-2.87,2.38-2.65,3-4.36,3.2-8,0,0-2.81-.46-2.48-2.72.45-3.13,2.84-3.21,4.62-1.81l2.06-5.5s5.19-3.41,5.49-5.58S507.34,178.49,503,179.88Z" style="fill:#263238"></path><path d="M464.46,292.59,438,441.21l22.65,1.28s24.06-128.11,27.59-128.43c1.48-.13,2.07,127.42,3.26,127.15s24.47.41,24.47.41-3.15-150.92-3.1-150.93Z" style="fill:#263238"></path><path d="M497.92,310.94c0,.12-3.9,1.05-8.76,2.08s-8.83,1.78-8.86,1.67,3.9-1.05,8.77-2.09S497.9,310.83,497.92,310.94Z" style="fill:#455a64"></path><path d="M462.32,433.77c0,.11-5.12.05-11.43-.14s-11.42-.45-11.42-.57,5.12-.06,11.43.14S462.33,433.65,462.32,433.77Z" style="fill:#455a64"></path><path d="M515.82,433.78c0,.12-5.53.05-12.35-.15s-12.33-.47-12.33-.59,5.53-.05,12.35.15S515.82,433.66,515.82,433.78Z" style="fill:#455a64"></path><path d="M475.77,315.06c.11,0-5.49,26.54-12.52,59.21s-12.82,59.15-12.93,59.12,5.48-26.53,12.51-59.21S475.65,315,475.77,315.06Z" style="fill:#455a64"></path><path d="M503.58,433.41a1.2,1.2,0,0,1,0-.31c0-.22,0-.52-.05-.9,0-.81-.09-2-.15-3.46-.13-3-.27-7.37-.43-12.75-.32-10.76-.62-25.64-.7-42.07s.08-31.31.29-42.08c.11-5.38.22-9.74.31-12.75.05-1.48.09-2.65.12-3.46,0-.38,0-.68,0-.9a1.2,1.2,0,0,1,0-.31s0,.1,0,.31v.9c0,.82,0,2,0,3.47,0,3-.1,7.38-.17,12.75-.13,10.76-.25,25.64-.17,42.07s.34,31.3.57,42.06c.13,5.37.22,9.72.29,12.75,0,1.49.06,2.65.07,3.47v.9C503.59,433.31,503.58,433.41,503.58,433.41Z" style="fill:#455a64"></path><path d="M553.64,188.48s-17.54,26.45-19,27.94-29,4.37-29,4.37c-8.43-1.9-35.69-1.27-40.84,2.52-2.63,1.46-6.12,5-9.12,10.47l.31-11.4S439.22,243,438,256.79c-.5,5.79,4.12,20.58,26,2l-.16,24.53-.26,10.59,49.3-3.06-2.53-26.29c-.29-7.39-.43-15.08-.61-21.89,3.08-1.17,31.75-12,33.72-12.31s20.85-35,20.85-35C564.93,191.16,553.64,188.48,553.64,188.48Z" style="fill:#198764"></path><path d="M446.74,245.25a57,57,0,0,1,4.51-6.36,59.48,59.48,0,0,1,4.93-6,58.1,58.1,0,0,1-4.51,6.36A59.48,59.48,0,0,1,446.74,245.25Z" style="fill:#263238"></path><path d="M465.22,236.36c.12,0-.15,12.88-.59,28.76s-.9,28.77-1,28.76.15-12.88.59-28.77S465.1,236.35,465.22,236.36Z" style="fill:#263238"></path><path d="M537.08,222.37a8.5,8.5,0,0,1-1.43-2.9,20.28,20.28,0,0,1-1-3.05,8.85,8.85,0,0,1,1.43,2.9A20.28,20.28,0,0,1,537.08,222.37Z" style="fill:#263238"></path><path d="M539.05,220.12a14.32,14.32,0,0,1-2.35-1.68,7.28,7.28,0,0,1-2.08-2A15.65,15.65,0,0,1,537,218.1,7.63,7.63,0,0,1,539.05,220.12Z" style="fill:#263238"></path><path d="M510.17,220.42a23.41,23.41,0,0,0-2.65.62,10.26,10.26,0,0,0-7,9.88,23.76,23.76,0,0,0,.28,2.7,1.83,1.83,0,0,1-.27-.69,8.94,8.94,0,0,1-.31-2,10.06,10.06,0,0,1,7.26-10.18,8.76,8.76,0,0,1,2-.36A2.08,2.08,0,0,1,510.17,220.42Z" style="fill:#263238"></path><path d="M496.68,219.79a120.15,120.15,0,0,1-14.37.11,120.2,120.2,0,0,1,14.37-.11Z" style="fill:#263238"></path><path d="M473.21,277.76a28.75,28.75,0,0,1-3.28-6.9,27.77,27.77,0,0,1,3.28,6.9Z" style="fill:#fff"></path><path d="M482.13,257a21.17,21.17,0,0,1-2.59,3.75,20.44,20.44,0,0,1-3,3.43,20.38,20.38,0,0,1,2.59-3.75A20,20,0,0,1,482.13,257Z" style="fill:#fff"></path><path d="M485.77,276.24a9.7,9.7,0,0,1-1.43-2.87,9.93,9.93,0,0,1-.94-3.06,20.24,20.24,0,0,1,2.37,5.93Z" style="fill:#fff"></path><path d="M479.28,285.42a12.7,12.7,0,0,1,.1-3.54,12.22,12.22,0,0,1,.62-3.48,23.92,23.92,0,0,1-.72,7Z" style="fill:#fff"></path><path d="M491.91,288.64a10.25,10.25,0,0,1-4.18-4.11,12.34,12.34,0,0,1,2.15,2C491,287.65,492,288.52,491.91,288.64Z" style="fill:#fff"></path><path d="M500.54,275.35a34.85,34.85,0,0,1-4.85,7,34.85,34.85,0,0,1,4.85-7Z" style="fill:#fff"></path><path d="M507.57,287.2a9,9,0,0,1-2.82-2.35,8.79,8.79,0,0,1-2.06-3,23.44,23.44,0,0,1,2.45,2.67A22.89,22.89,0,0,1,507.57,287.2Z" style="fill:#fff"></path><path d="M507.2,276.6a30.29,30.29,0,0,1,0-7.92,30.29,30.29,0,0,1,0,7.92Z" style="fill:#fff"></path><path d="M497.77,263.25a14.36,14.36,0,0,1-.84,3.76,14.52,14.52,0,0,1-1.35,3.62,28.88,28.88,0,0,1,2.19-7.38Z" style="fill:#fff"></path><path d="M503.21,261a6.34,6.34,0,0,1-2.07-2.34,6.12,6.12,0,0,1-1.14-2.91,21.18,21.18,0,0,1,1.58,2.64A18.9,18.9,0,0,1,503.21,261Z" style="fill:#fff"></path><path d="M489.86,252.65a9.06,9.06,0,0,1,0,3,9,9,0,0,1-.49,3,8.51,8.51,0,0,1,0-3A8.65,8.65,0,0,1,489.86,252.65Z" style="fill:#fff"></path><path d="M471,260.24a23.25,23.25,0,0,1,1-6.88,12,12,0,0,1-.25,3.48A12.2,12.2,0,0,1,471,260.24Z" style="fill:#fff"></path><path d="M469.93,289.38a11.39,11.39,0,0,1-1-2.58,10.81,10.81,0,0,1-.82-2.64,5.7,5.7,0,0,1,1.31,2.47A5.84,5.84,0,0,1,469.93,289.38Z" style="fill:#fff"></path><path d="M480.73,249.05a7.92,7.92,0,0,1-2.16-1.8c-1.09-1.1-1.89-2.08-1.78-2.18a15.53,15.53,0,0,1,3.94,4Z" style="fill:#fff"></path><path d="M502.2,244.6a21.05,21.05,0,0,1-4.55,4.81,21.65,21.65,0,0,1,4.55-4.81Z" style="fill:#fff"></path><path d="M505.77,255.18a23.32,23.32,0,0,1,1.05-6.85,11.87,11.87,0,0,1-.27,3.46A12,12,0,0,1,505.77,255.18Z" style="fill:#fff"></path><path d="M494.06,241A26.47,26.47,0,0,1,487.4,244a13.48,13.48,0,0,1,3.22-1.77A12.46,12.46,0,0,1,494.06,241Z" style="fill:#fff"></path><path d="M510.78,236.4a12.26,12.26,0,0,1-3.33,1.36,12.51,12.51,0,0,1-3.49.86,12.46,12.46,0,0,1,3.33-1.36A13,13,0,0,1,510.78,236.4Z" style="fill:#fff"></path><path d="M509,230.69a5.39,5.39,0,0,1-1.58-2.24,5.3,5.3,0,0,1-.76-2.62,11,11,0,0,1,1.23,2.4A11.2,11.2,0,0,1,509,230.69Z" style="fill:#fff"></path><path d="M516.2,232.67a7.75,7.75,0,0,1,1-3.27,8,8,0,0,1,1.89-2.85,20.68,20.68,0,0,1-1.42,3.07A20.39,20.39,0,0,1,516.2,232.67Z" style="fill:#fff"></path><path d="M528.62,233.37a10.33,10.33,0,0,1-6.14-2.11,1114.28,1114.28,0,0,0,6.14,2.11Z" style="fill:#fff"></path><path d="M530.65,225.17a12.87,12.87,0,0,1-3.46-1.13,12.16,12.16,0,0,1-3.26-1.61,13,13,0,0,1,3.46,1.13A13.35,13.35,0,0,1,530.65,225.17Z" style="fill:#fff"></path><path d="M540.18,225a24.31,24.31,0,0,1-6.48,2.88,11.67,11.67,0,0,1,3.13-1.68A12.51,12.51,0,0,1,540.18,225Z" style="fill:#fff"></path><path d="M543.93,221.15a11.15,11.15,0,0,1-.27-4.18,11,11,0,0,1,.79-4.11,35.85,35.85,0,0,1-.27,4.14A35.41,35.41,0,0,1,543.93,221.15Z" style="fill:#fff"></path><path d="M554,211.58a18.28,18.28,0,0,1-5.76,2.17,9.5,9.5,0,0,1,2.79-1.33A9.1,9.1,0,0,1,554,211.58Z" style="fill:#fff"></path><path d="M550.23,205.51a11.28,11.28,0,0,1-3.29.8,11.48,11.48,0,0,1-3.37.28,11.28,11.28,0,0,1,3.29-.8A11.48,11.48,0,0,1,550.23,205.51Z" style="fill:#fff"></path><path d="M553.83,204a14.5,14.5,0,0,1-2.16-7.38,26.79,26.79,0,0,1,1.08,3.69A29.33,29.33,0,0,1,553.83,204Z" style="fill:#fff"></path><path d="M558.93,199.72a7.79,7.79,0,0,1-.33-2.78,7.53,7.53,0,0,1,.19-2.8,7.87,7.87,0,0,1,.33,2.79A7.46,7.46,0,0,1,558.93,199.72Z" style="fill:#fff"></path><path d="M494.44,235a18.16,18.16,0,0,1-3.51-2.48,17.24,17.24,0,0,1-3.18-2.89,18.16,18.16,0,0,1,3.51,2.48A17.66,17.66,0,0,1,494.44,235Z" style="fill:#fff"></path><path d="M482.17,239.33a20.37,20.37,0,0,1-.36-6.48,20.33,20.33,0,0,1,.36,6.48Z" style="fill:#fff"></path><path d="M482.38,223.37a15.86,15.86,0,0,1-3.5,1.93,15.61,15.61,0,0,1-3.71,1.47,30,30,0,0,1,7.21-3.4Z" style="fill:#fff"></path><path d="M499.6,222.17a9.45,9.45,0,0,1-2.35,2.05,9.13,9.13,0,0,1-2.65,1.62,9.77,9.77,0,0,1,2.35-2A9.6,9.6,0,0,1,499.6,222.17Z" style="fill:#fff"></path><path d="M468.48,234.29a16.45,16.45,0,0,1-2.66-3.13,16,16,0,0,1-2.25-3.45,17,17,0,0,1,2.67,3.14A16,16,0,0,1,468.48,234.29Z" style="fill:#fff"></path><path d="M476.08,234a28,28,0,0,1-7.06,8.44c-.1-.11,1.61-1.88,3.55-4.2S476,233.87,476.08,234Z" style="fill:#fff"></path><path d="M460.38,244a24.79,24.79,0,0,1-3.6-6.12,12.36,12.36,0,0,1,2,2.93A12.17,12.17,0,0,1,460.38,244Z" style="fill:#fff"></path><path d="M453.37,251.58a11.76,11.76,0,0,1,1.11-3.26,11.52,11.52,0,0,1,1.59-3,11.47,11.47,0,0,1-1.11,3.25A11.9,11.9,0,0,1,453.37,251.58Z" style="fill:#fff"></path><path d="M463.07,255.6a6.11,6.11,0,0,1-3.25-.89,6,6,0,0,1-2.6-2.14c.11-.12,1.24.85,2.84,1.67S463.1,255.45,463.07,255.6Z" style="fill:#fff"></path><path d="M454.1,257.89a28,28,0,0,1-3.48,2.84,28.63,28.63,0,0,1-3.59,2.69,14.62,14.62,0,0,1,3.27-3.1A15,15,0,0,1,454.1,257.89Z" style="fill:#fff"></path><path d="M448.24,256.53a25.92,25.92,0,0,1-5.5-4.95,13.33,13.33,0,0,1,2.92,2.28A13.63,13.63,0,0,1,448.24,256.53Z" style="fill:#fff"></path><path d="M450.67,234.65a16.62,16.62,0,0,1-2.25,3.47,17.33,17.33,0,0,1-2.66,3.16,16.31,16.31,0,0,1,2.24-3.47A16.7,16.7,0,0,1,450.67,234.65Z" style="fill:#fff"></path></g><g id="freepik--character-1--inject-4"><path d="M129.08,220.61l11.26-14.09s18.16,14.19,20.23,13.11c11.41-6,20.64-17,23.77-21,.11-.73.22-1.58.31-2.6a7.81,7.81,0,0,0-.24-2.59,12.07,12.07,0,0,0-1.14-3,1,1,0,0,1,1-1.6c.86.3,2.47,2.53,3,5.71s3-1.24,4-2.83,4.06-6.38,4.78-6.48c1-.14,1.4,1,.43,2.52s-3.56,6.47-2.69,6.93,5.5-7.72,5.5-7.72.71-1.9,1.73-1.41c1.83.88-3.76,9.2-4.31,10-.38.54.54,1.07.92.47s4.46-8.25,6.33-7.37c1.44.68-4.53,6.88-4.5,8.93s4-5.16,5.4-4.45c.5.26.84.52-2.06,4.33a96.23,96.23,0,0,1-7.05,7.61l0,0s-26.89,41.33-45.57,30.3C130.4,223.6,129.08,220.61,129.08,220.61Z" style="fill:#ffbe9d"></path><path d="M111.42,196.85a15.32,15.32,0,0,0-11.73,4.24L96.87,215l4.83,19.48c1.42,5.69-2.73,13.66-3.84,23l39.81,7,2-27.83.46-7.5,6.28,4.07,13.41-15.55-12.43-9.91a35.29,35.29,0,0,0-22.16-9.91" style="fill:#263238"></path><path d="M136.13,216.16a4.93,4.93,0,0,1,2.19,1,8.38,8.38,0,0,1,2.94,10.37,4.71,4.71,0,0,1-1.36,2c-.07,0,.51-.76,1-2.1a8.54,8.54,0,0,0-2.82-9.93C137,216.54,136.1,216.25,136.13,216.16Z" style="fill:#455a64"></path><path d="M141.52,224.85c0,.09-1.06.09-2.67.53a12.08,12.08,0,0,0-8.67,8.84c-.41,1.62-.39,2.68-.48,2.68a2.07,2.07,0,0,1-.08-.74,9.54,9.54,0,0,1,.2-2,11.64,11.64,0,0,1,8.94-9.11,10,10,0,0,1,2-.24A1.91,1.91,0,0,1,141.52,224.85Z" style="fill:#fff"></path><path d="M155.09,213.8a1.24,1.24,0,0,1,.14.87,3.14,3.14,0,0,1-1.25,2,23.48,23.48,0,0,1-3.07,1.63,7.59,7.59,0,0,0-2.75,3,31.55,31.55,0,0,0-1.71,3.84,19.79,19.79,0,0,1-1.51,3.15,8.39,8.39,0,0,1-1.5,1.83c-.43.36-.71.51-.72.48a13.14,13.14,0,0,0,1.91-2.5A23.9,23.9,0,0,0,146,225a25.7,25.7,0,0,1,1.69-3.93,7.85,7.85,0,0,1,3-3.14,32.42,32.42,0,0,0,3.09-1.5,3.12,3.12,0,0,0,1.27-1.78A7.71,7.71,0,0,0,155.09,213.8Z" style="fill:#fff"></path><path d="M138.2,257.14a4.52,4.52,0,0,0-1.53-.56,5,5,0,0,0-1.89.16,9.81,9.81,0,0,0-2.32,1,16.58,16.58,0,0,1-2.83,1.44,8.91,8.91,0,0,1-3.65.46,15.76,15.76,0,0,1-7.72-3.06c-2.42-1.71-4.45-3.64-6.48-5.15a18.72,18.72,0,0,0-5.85-3.14,10.74,10.74,0,0,0-4.44-.43c-1,.14-1.61.37-1.63.31a2,2,0,0,1,.4-.18,6,6,0,0,1,1.2-.33A10.38,10.38,0,0,1,106,248a18.43,18.43,0,0,1,6,3.11c2.06,1.51,4.12,3.42,6.49,5.1a15.42,15.42,0,0,0,7.46,3,8.56,8.56,0,0,0,3.47-.39,17.63,17.63,0,0,0,2.79-1.35,9.75,9.75,0,0,1,2.43-1,5.05,5.05,0,0,1,2-.07,3.14,3.14,0,0,1,1.17.47C138.11,257,138.21,257.13,138.2,257.14Z" style="fill:#fff"></path><path d="M126.38,197.73a2.84,2.84,0,0,1,.07,1,7.69,7.69,0,0,1-.7,2.76,8.08,8.08,0,0,1-2.71,3.24,7.84,7.84,0,0,1-5,1.34,8,8,0,0,1-4.78-1.95A8.15,8.15,0,0,1,111,200.6a7.68,7.68,0,0,1-.34-2.83,2.58,2.58,0,0,1,.2-1,10.34,10.34,0,0,0,.49,3.73,8.15,8.15,0,0,0,2.26,3.31,7.77,7.77,0,0,0,9.18.57,8,8,0,0,0,2.65-3A10.52,10.52,0,0,0,126.38,197.73Z" style="fill:#455a64"></path><path d="M303.41,238.18,277.16,142.7,142.38,179.76l26.25,95.47Zm-136.49.46-14.46-54.27,119-31.73,21.86,82-56,14.94L197,260.33l-22.65,6Z" style="fill:#fafafa"></path><path d="M303.41,238.18,277.16,142.7,142.38,179.76l26.25,95.47Zm-136.49.46-14.46-54.27,119-31.73,21.86,82-56,14.94L197,260.33l-22.65,6Z" style="fill:none"></path><path d="M166.92,238.64a4.22,4.22,0,0,1,.14.46l.39,1.36q.5,1.84,1.46,5.36l5.53,20.51-.16-.09,119-31.84-.17.31-14.48-54.26c-2.51-9.44-5-18.72-7.39-27.74l.32.18-119,31.65.13-.22c4.47,16.92,8.06,30.49,10.54,39.85L166,234.9q.47,1.83.72,2.79c.15.63.22.95.22.95s-.1-.32-.27-.94-.43-1.56-.77-2.77c-.66-2.45-1.64-6.06-2.9-10.71l-10.69-39.81,0-.17.17,0,119-31.8.25-.07.07.25c2.4,9,4.88,18.3,7.4,27.74l14.45,54.26.06.24-.24.07-119,31.6-.13,0,0-.13c-2.34-8.88-4.17-15.81-5.41-20.54-.62-2.35-1.08-4.15-1.4-5.38-.15-.6-.27-1-.35-1.37S166.92,238.64,166.92,238.64Z" style="fill:#263238"></path><path d="M303.41,238.18l-.63.18-1.87.53-7.3,2L266,248.59l-97.3,26.87-.23.06-.06-.22-26.27-95.46v0l-.07-.25.25-.07,134.79-37,.2-.06.06.2,19,69.59c2.25,8.3,4,14.79,5.22,19.22.6,2.19,1,3.88,1.36,5l.45,1.71s-.18-.6-.51-1.74-.79-2.84-1.41-5.05c-1.23-4.43-3-10.93-5.34-19.23-4.59-16.61-11.19-40.44-19.2-69.4l.26.14L142.45,180l.18-.32h0c9.39,34.16,18.29,66.59,26.23,95.47l-.29-.17,97.21-26.6,27.7-7.55,7.37-2,1.9-.51Z" style="fill:#263238"></path><path d="M176.25,224.68a29.79,29.79,0,0,1,16.85-7,34.38,34.38,0,0,1,7.94.51,14.14,14.14,0,0,1,2.06-.66l-1.22-3.9a4.1,4.1,0,0,1-.64-.61,5.68,5.68,0,0,1-9.81-5.49,5.31,5.31,0,0,1-.13-10.07,4.79,4.79,0,0,1,1.12-5.48,6.12,6.12,0,0,1,.49-2.14,3.87,3.87,0,0,1,3.31-2.39,4.63,4.63,0,0,1,7.2-4.86,6.68,6.68,0,0,1,3.45-2.77,4.71,4.71,0,0,1,4.29.66,3.61,3.61,0,0,1,1.17,4.05,2.9,2.9,0,0,1,2.58,2.37,1.37,1.37,0,0,1,0,.29c6.76-1.75,4.65,5.73,4.65,5.73a5.28,5.28,0,0,1,3.4,3.82,3.89,3.89,0,0,1-2.35,4.3,6.17,6.17,0,0,1-5.85,9.67c.34,1,.85,2.61,1.38,4.24a.08.08,0,0,1,0,0,31.14,31.14,0,0,1,16.48,1.75c6.4-4.72,10.89-12,18.39-15.62a27.39,27.39,0,0,1,13.45-2.34c-.09-.2-.17-.41-.28-.61a10.38,10.38,0,0,0-1.64-2.29.88.88,0,0,1,.5-1.58c.78.06,2.64,1.58,3.8,4.12a1.81,1.81,0,0,0,.44.65l.51.08c.78-.37,1.44-2.88,1.75-4,.43-1.55,2-6.26,2.56-6.51.85-.35,1.39.49.92,2s-1.53,6.23-.71,6.42,2.9-7.71,2.9-7.71.17-1.76,1.13-1.57c1.74.33-1.09,8.56-1.38,9.33-.2.54.69.78.88.19s1.89-7.92,3.66-7.6c1.36.25-2.27,6.79-1.78,8.5s2.25-5.24,3.53-4.95c.48.11.83.26-.76,4.1a52.2,52.2,0,0,1-2.41,4.79c2.54,1,5,2.2,7.47,3.36l7.75,29.06-21.86-82-119,31.73,14.46,54.27A30.66,30.66,0,0,1,176.25,224.68Zm59.39-49.22a8.36,8.36,0,0,1,10.52-4.3c3.27.72,5.41,6,4.1,10A8.1,8.1,0,0,1,240,185.9,8.23,8.23,0,0,1,235.64,175.46Z" style="fill:#e0e0e0"></path><path d="M267.82,199.2l-.51-.08A.42.42,0,0,0,267.82,199.2Z" style="fill:#455a64"></path><path d="M249,224.08l-.74,1.51c.93.17,1.58.19,1.81,0,8.24-7.57,13.52-18.89,15.25-23-.07-.63-.17-1.38-.32-2.25a6.86,6.86,0,0,0-.5-1.51A27.39,27.39,0,0,0,251,201.17c-7.5,3.59-12,10.9-18.39,15.62a29.92,29.92,0,0,1,3.69,1.75Z" style="fill:#455a64"></path><path d="M190.85,237.26c-.47-9.82,3.28-14.15,5.88-15.95a11.81,11.81,0,0,1,4.31-3.07,34.38,34.38,0,0,0-7.94-.51,29.79,29.79,0,0,0-16.85,7,30.66,30.66,0,0,0-9.33,14l7.39,27.73,22.65-6A59.08,59.08,0,0,1,190.85,237.26Z" style="fill:#455a64"></path><path d="M278.11,202.22c-.58,1.05-1.2,2.13-1.8,3.17l0,0S263,246.11,244.89,241l-3.62-1-.06.12-6.18-2,1.3,6.4,1,5.07,56-14.94-7.75-29.06C283.13,204.42,280.65,203.26,278.11,202.22Z" style="fill:#455a64"></path><path d="M196.23,204.11a2.45,2.45,0,0,1-1.83-2A2,2,0,0,1,196,200a2.35,2.35,0,0,1,2.15,1,4.44,4.44,0,0,1,.45.83V201a22.45,22.45,0,0,0-1.65-7.32l.08-.1a3.95,3.95,0,0,0,7.05-3.28,3.91,3.91,0,0,0,3.5,1.54,2.68,2.68,0,0,0,2.3-2.79,2.91,2.91,0,0,0,3.36,1,2.8,2.8,0,0,0,1.3-1.13l.56,1.94a4.1,4.1,0,0,1,1.64.31,4,4,0,0,1,1.95,1.79,3,3,0,0,1,.27.68.94.94,0,0,1,.05.25.75.75,0,0,1,.08.24,2.8,2.8,0,0,1,.1.72,3.83,3.83,0,0,1-.8,2.52,4.14,4.14,0,0,1-1.23,1.06c.43,1.68.81,3.25,1,4.45,1,4.94-3.76,6.76-3.76,6.76h0v0c0,.08.16.51.37,1.16a6.17,6.17,0,0,0,5.85-9.67,3.89,3.89,0,0,0,2.35-4.3,5.28,5.28,0,0,0-3.4-3.82s2.11-7.48-4.65-5.73a1.37,1.37,0,0,0,0-.29,2.9,2.9,0,0,0-2.58-2.37,3.61,3.61,0,0,0-1.17-4.05,4.71,4.71,0,0,0-4.29-.66,6.68,6.68,0,0,0-3.45,2.77,4.63,4.63,0,0,0-7.2,4.86,3.87,3.87,0,0,0-3.31,2.39,6.12,6.12,0,0,0-.49,2.14,4.79,4.79,0,0,0-1.12,5.48,5.31,5.31,0,0,0,.13,10.07,5.68,5.68,0,0,0,9.81,5.49,4.1,4.1,0,0,0,.64.61l-3.16-10.07A3.21,3.21,0,0,1,196.23,204.11Z" style="fill:#455a64"></path><path d="M216.61,191.29a3.78,3.78,0,0,0-1.5-.26c.6,2.11,1.32,4.71,1.94,7.11a4,4,0,0,0,1.14-.95,3.89,3.89,0,0,0,.84-2.4,9.43,9.43,0,0,0-.07-1s-.1-.34-.41-.87A3.93,3.93,0,0,0,216.61,191.29Z" style="fill:#455a64"></path><path d="M265.31,202.59c-1.73,4.08-7,15.4-15.25,23-.23.22-.88.2-1.81,0l-7,14.41,3.62,1c18.14,5.08,31.46-35.62,31.46-35.62l0,0c.6-1,1.22-2.12,1.8-3.17a52.2,52.2,0,0,0,2.41-4.79c1.59-3.84,1.24-4,.76-4.1-1.28-.29-3,6.66-3.53,4.95s3.14-8.25,1.78-8.5c-1.77-.32-3.47,7-3.66,7.6s-1.08.35-.88-.19c.29-.77,3.12-9,1.38-9.33-1-.19-1.13,1.57-1.13,1.57s-2.08,7.89-2.9,7.71.24-4.87.71-6.42-.07-2.37-.92-2c-.58.25-2.13,5-2.56,6.51-.31,1.11-1,3.62-1.75,4a.42.42,0,0,1-.51-.08,1.81,1.81,0,0,1-.44-.65c-1.16-2.54-3-4.06-3.8-4.12a.88.88,0,0,0-.5,1.58,10.38,10.38,0,0,1,1.64,2.29c.11.2.19.41.28.61a6.86,6.86,0,0,1,.5,1.51C265.14,201.21,265.24,202,265.31,202.59Z" style="fill:#ebebeb"></path><path d="M235,238.11l6.18,2,.06-.12,7-14.41.74-1.51-12.65-5.54a29.92,29.92,0,0,0-3.69-1.75A31.14,31.14,0,0,0,216.17,215a6.62,6.62,0,1,1-12.62,4l-.45-1.45a14.14,14.14,0,0,0-2.06.66,11.81,11.81,0,0,0-4.31,3.07c-2.6,1.8-6.35,6.13-5.88,15.95A59.08,59.08,0,0,0,197,260.33l40.33-10.75-1-5.07Z" style="fill:#263238"></path><path d="M207.84,193.63a3.82,3.82,0,0,0-1.75-.26,3.86,3.86,0,0,0-1.89.69,3.82,3.82,0,0,0-1.49,4.1,3.85,3.85,0,0,0,1.29,2,3.71,3.71,0,0,0,2.05.83,3.79,3.79,0,0,0,3.36-1.44,3.91,3.91,0,0,0,.85-2.4,5.67,5.67,0,0,0,0-.74c-.13,0-.22,0-.23,0s.07-.1.2-.16,0,0,0,0-.11-.34-.42-.87A3.9,3.9,0,0,0,207.84,193.63Zm-.81,4.11a.64.64,0,1,1-.33-1.24.64.64,0,0,1,.33,1.24Zm-.24-1.44c-.68.13-1.1.6-1.19.53s0-.2.18-.41a1.68,1.68,0,0,1,2-.4c.25.12.36.26.33.31S207.47,196.16,206.79,196.3Z" style="fill:#ebebeb"></path><path d="M202.74,199a4.24,4.24,0,0,1-.3-.77,4,4,0,0,1,.15-2.53,4,4,0,0,1,1.47-1.85,3.92,3.92,0,0,1,2-.71,4,4,0,0,1,3.79,2.1,3.59,3.59,0,0,1,.27.68.88.88,0,0,1,.05.25v0a2.64,2.64,0,0,1,.4-.14,2.14,2.14,0,0,1-.25-.52s.17.16.4.48a2.11,2.11,0,0,1,.49-.07l0-.05a4.11,4.11,0,0,1,.15-2.53,4.07,4.07,0,0,1,3.49-2.56h.2l-.56-1.94a2.8,2.8,0,0,1-1.3,1.13,2.91,2.91,0,0,1-3.36-1,2.68,2.68,0,0,1-2.3,2.79,3.91,3.91,0,0,1-3.5-1.54,3.95,3.95,0,0,1-7.05,3.28l-.08.1a22.45,22.45,0,0,1,1.65,7.32l1.11-.55C201.09,199.69,202.31,199.14,202.74,199Z" style="fill:#ebebeb"></path><path d="M214.87,191a3.86,3.86,0,0,0-1.89.69,3.7,3.7,0,0,0-1.36,1.74,3.86,3.86,0,0,0-.14,2.36,3.85,3.85,0,0,0,3.34,2.82,3.92,3.92,0,0,0,2-.35c.09,0,.16-.11.25-.15-.62-2.4-1.34-5-1.94-7.11Zm-.57,4.77a.63.63,0,0,1-.79-.45.64.64,0,1,1,1.24-.33A.64.64,0,0,1,214.3,195.8Zm1.21-1.45c-.06.1-.62-.17-1.3,0s-1.1.6-1.19.53,0-.2.18-.41a1.67,1.67,0,0,1,.92-.53,1.74,1.74,0,0,1,1.06.13C215.43,194.16,215.54,194.3,215.51,194.35Z" style="fill:#ebebeb"></path><path d="M203.55,219a6.62,6.62,0,1,0,12.62-4,.08.08,0,0,0,0,0c-.53-1.63-1-3.21-1.38-4.24-.21-.65-.35-1.08-.37-1.16l.2,1.2c-4.81,1.5-7.22-1.68-7.22-1.68a12.53,12.53,0,0,0,7,.46s4.76-1.82,3.76-6.76c-.24-1.2-.62-2.77-1-4.45l-.21.13a4,4,0,0,1-2.1.39,4,4,0,0,1-3.52-2.81,2.87,2.87,0,0,1-.37.16l.13.19c.41.58.94,1.38,1.53,2.29l.81,1.27a1.18,1.18,0,0,1,.25.69.43.43,0,0,1-.22.31,1.46,1.46,0,0,1-.28.11,5.34,5.34,0,0,1-1.12.24,4.35,4.35,0,0,1,1.06-.43c.17-.06.33-.13.33-.26a1,1,0,0,0-.24-.52l-.83-1.26c-.58-.9-1.09-1.73-1.45-2.33l-.15-.25h0a3.44,3.44,0,0,1-.46.08v0a3.33,3.33,0,0,1,.1.72,4,4,0,0,1-2.24,3.71,4.07,4.07,0,0,1-2.11.39,4,4,0,0,1-2.19-.88,3.86,3.86,0,0,1-1.05-1.28c-.37.25-1.56.87-3,1.58l-1.23.59v.6a4.44,4.44,0,0,0-.45-.83,2.35,2.35,0,0,0-2.15-1,2,2,0,0,0-1.55,2.12,2.45,2.45,0,0,0,1.83,2,3.21,3.21,0,0,0,2.49-.5l3.16,10.07,1.22,3.9ZM210,202.56a12.69,12.69,0,0,0,3.53.25,1.94,1.94,0,0,1-2.05,1.22C209.85,203.85,210,202.56,210,202.56Zm-13.17.87a1.18,1.18,0,0,1-.82-.19,1.55,1.55,0,0,1-.6-.81,1.15,1.15,0,0,1,.08-1.05,1,1,0,0,1,.77-.37c.47,0,.7.14.69.19s-.28,0-.66.1a.8.8,0,0,0-.48.3.81.81,0,0,0,0,.7,1.11,1.11,0,0,0,1,.83c.37,0,.57-.16.61-.12S197.29,203.35,196.8,203.43Z" style="fill:#ebebeb"></path><path d="M214,194.56a.65.65,0,0,0-.45.79.64.64,0,1,0,.45-.79Z" style="fill:#263238"></path><path d="M214.12,193.91a1.67,1.67,0,0,0-.92.53c-.18.21-.23.38-.18.41s.51-.39,1.19-.53,1.24.13,1.3,0-.08-.19-.33-.31A1.74,1.74,0,0,0,214.12,193.91Z" style="fill:#263238"></path><path d="M206.7,196.5a.64.64,0,1,0,.78.45A.64.64,0,0,0,206.7,196.5Z" style="fill:#263238"></path><path d="M207.76,196a1.68,1.68,0,0,0-2,.4c-.18.21-.23.38-.18.41s.51-.4,1.19-.53,1.24.13,1.3,0S208,196.14,207.76,196Z" style="fill:#263238"></path><path d="M211.45,204a1.94,1.94,0,0,0,2.05-1.22,12.69,12.69,0,0,1-3.53-.25S209.85,203.85,211.45,204Z" style="fill:#fff"></path><path d="M214.4,209.58a12.53,12.53,0,0,1-7-.46s2.41,3.18,7.22,1.68l-.2-1.2v0Z" style="fill:#e0e0e0"></path><path d="M218.34,197.31a3.83,3.83,0,0,0,.8-2.52,2.8,2.8,0,0,0-.1-.72.75.75,0,0,0-.08-.24,9.43,9.43,0,0,1,.07,1,3.89,3.89,0,0,1-.84,2.4,4,4,0,0,1-1.14.95c-.09,0-.16.11-.25.15a3.92,3.92,0,0,1-2,.35,3.8,3.8,0,0,1-3.2-5.18,3.7,3.7,0,0,1,1.36-1.74,3.86,3.86,0,0,1,1.89-.69h.24a3.78,3.78,0,0,1,1.5.26,3.93,3.93,0,0,1,1.94,1.67c.31.53.38.88.41.87a.94.94,0,0,0-.05-.25,3,3,0,0,0-.27-.68,4,4,0,0,0-1.95-1.79,4.1,4.1,0,0,0-1.64-.31h-.2a4.07,4.07,0,0,0-3.49,2.56,4.11,4.11,0,0,0-.15,2.53l0,.05a2.11,2.11,0,0,0-.49.07c-.23-.32-.37-.5-.4-.48a2.14,2.14,0,0,0,.25.52,2.64,2.64,0,0,0-.4.14v0s0,0,0,0-.21.12-.2.16.1.05.23,0a5.67,5.67,0,0,1,0,.74,3.91,3.91,0,0,1-.85,2.4,3.79,3.79,0,0,1-3.36,1.44,3.71,3.71,0,0,1-2.05-.83,3.85,3.85,0,0,1-1.29-2,3.82,3.82,0,0,1,1.49-4.1,3.86,3.86,0,0,1,1.89-.69,3.82,3.82,0,0,1,1.75.26,3.9,3.9,0,0,1,1.93,1.67c.31.53.39.88.42.87a.88.88,0,0,0-.05-.25,3.59,3.59,0,0,0-.27-.68,4,4,0,0,0-3.79-2.1,3.92,3.92,0,0,0-2,.71,4,4,0,0,0-1.47,1.85,4,4,0,0,0-.15,2.53,4.24,4.24,0,0,0,.3.77c-.43.14-1.65.69-3.08,1.4l-1.11.55v.29l1.23-.59c1.44-.71,2.63-1.33,3-1.58a3.86,3.86,0,0,0,1.05,1.28,4,4,0,0,0,2.19.88,4.07,4.07,0,0,0,2.11-.39,4,4,0,0,0,2.24-3.71,3.33,3.33,0,0,0-.1-.72v0a3.44,3.44,0,0,0,.46-.08h0l.15.25c.36.6.87,1.43,1.45,2.33l.83,1.26a1,1,0,0,1,.24.52c0,.13-.16.2-.33.26a4.35,4.35,0,0,0-1.06.43,5.34,5.34,0,0,0,1.12-.24,1.46,1.46,0,0,0,.28-.11.43.43,0,0,0,.22-.31,1.18,1.18,0,0,0-.25-.69l-.81-1.27c-.59-.91-1.12-1.71-1.53-2.29l-.13-.19a2.87,2.87,0,0,0,.37-.16,4,4,0,0,0,3.52,2.81,4,4,0,0,0,2.1-.39l.21-.13A4.14,4.14,0,0,0,218.34,197.31Z" style="fill:#263238"></path><path d="M195.78,202.3a.81.81,0,0,1,0-.7.8.8,0,0,1,.48-.3c.38-.06.66,0,.66-.1s-.22-.18-.69-.19a1,1,0,0,0-.77.37,1.15,1.15,0,0,0-.08,1.05,1.55,1.55,0,0,0,.6.81,1.18,1.18,0,0,0,.82.19c.49-.08.64-.4.59-.42s-.24.14-.61.12A1.11,1.11,0,0,1,195.78,202.3Z" style="fill:#e0e0e0"></path><path d="M240,185.9a8.1,8.1,0,0,0,10.22-4.79c1.31-4-.83-9.23-4.1-10a8.36,8.36,0,0,0-10.52,4.3A8.23,8.23,0,0,0,240,185.9Z" style="fill:#455a64"></path><path d="M131.09,416.65l1-7.54L118,407.18l-1.56,11,.87.17c3.87.75,19.71,3.54,22.42,3.11C142.72,421,131.09,416.65,131.09,416.65Z" style="fill:#198764"></path><path d="M121.54,418.79a5,5,0,0,0-1.39-3.26,4.84,4.84,0,0,0-3.16-1.48l-.54,3.95Z" style="fill:#198764"></path><path d="M136.74,419s4,1.79,3.42,2.41-16.73-1.59-23.76-3.19l.07-.32,18.78,2.75S135.92,418.9,136.74,419Z" style="fill:#198764"></path><path d="M116.25,417.85l.24,0,.69.14,2.55.47c2.16.37,5.14.85,8.45,1.31s6.31.8,8.49,1l2.58.24.7.06h.25a1.17,1.17,0,0,0-.24-.05l-.7-.08-2.58-.3c-2.17-.26-5.17-.63-8.48-1.08s-6.29-.92-8.45-1.26l-2.56-.41-.69-.11A.94.94,0,0,0,116.25,417.85Z" style="fill:#263238"></path><path d="M135.21,420.85a5.68,5.68,0,0,1,.65-1.16,5.35,5.35,0,0,1,1-.86,1.85,1.85,0,0,0-1.14.75A1.93,1.93,0,0,0,135.21,420.85Z" style="fill:#263238"></path><path d="M131.34,418.16s.27-.18.52-.48.42-.56.38-.59-.26.18-.51.48S131.3,418.13,131.34,418.16Z" style="fill:#263238"></path><path d="M130.28,417.4s.27-.08.54-.26.47-.37.45-.41-.27.08-.55.26S130.25,417.36,130.28,417.4Z" style="fill:#263238"></path><path d="M129.74,416s.32.13.72.19a1.7,1.7,0,0,0,.75,0c0-.05-.32-.14-.72-.2A1.61,1.61,0,0,0,129.74,416Z" style="fill:#263238"></path><path d="M129.62,415a1.48,1.48,0,0,0,.79.35,1.4,1.4,0,0,0,.86,0,4.9,4.9,0,0,0-.82-.17A3.66,3.66,0,0,0,129.62,415Z" style="fill:#263238"></path><path d="M132,417a2.49,2.49,0,0,0,.9.12,6.26,6.26,0,0,0,1-.08,2.82,2.82,0,0,0,.58-.16.47.47,0,0,0,.27-.25.38.38,0,0,0-.09-.38,1.68,1.68,0,0,0-2.13.21,1.53,1.53,0,0,0-.37.56c-.06.15-.07.24-.06.24a2.64,2.64,0,0,1,.52-.72,1.61,1.61,0,0,1,.84-.39,1.41,1.41,0,0,1,1.07.22c.13.13,0,.29-.12.36a2.39,2.39,0,0,1-.54.15,6.26,6.26,0,0,1-1,.11C132.34,417,132,417,132,417Z" style="fill:#263238"></path><path d="M132.21,417.07s.18-.2.2-.61a1.63,1.63,0,0,0-.16-.7.9.9,0,0,0-.69-.56.36.36,0,0,0-.34.38,1.08,1.08,0,0,0,.1.42,2.65,2.65,0,0,0,.35.61,1.43,1.43,0,0,0,.47.44s-.16-.19-.37-.51a3.34,3.34,0,0,1-.3-.6c-.1-.21-.14-.56.09-.57s.43.27.55.47a1.52,1.52,0,0,1,.17.62A2.39,2.39,0,0,1,132.21,417.07Z" style="fill:#263238"></path><path d="M117.07,414s.41,0,1,.18a4.48,4.48,0,0,1,3.29,3.46c.13.63.1,1,.13,1a.82.82,0,0,0,0-.28,3.89,3.89,0,0,0,0-.78,4.32,4.32,0,0,0-3.39-3.56,4.34,4.34,0,0,0-.77-.08A.94.94,0,0,0,117.07,414Z" style="fill:#263238"></path><path d="M119.34,408.35a23.88,23.88,0,0,0-.52,2.88,24.25,24.25,0,0,0-.35,2.91,23.88,23.88,0,0,0,.52-2.88A24.25,24.25,0,0,0,119.34,408.35Z" style="fill:#263238"></path><path d="M123.5,417.65a7.47,7.47,0,0,0,2,.49,7.83,7.83,0,0,0,2.08.12c0-.05-.92-.12-2.06-.29S123.52,417.61,123.5,417.65Z" style="fill:#263238"></path><path d="M120.74,417.27s.05.21.11.43.09.42.14.42.1-.21,0-.47S120.77,417.24,120.74,417.27Z" style="fill:#263238"></path><path d="M119.87,415.83s0,.19.16.36.26.28.3.25,0-.19-.16-.36S119.91,415.8,119.87,415.83Z" style="fill:#263238"></path><path d="M118.46,415c0,.05.19.07.39.18s.33.23.37.2,0-.24-.29-.36S118.45,415,118.46,415Z" style="fill:#263238"></path><path d="M117.44,414.61s0,.12.16.18.22.08.24,0,0-.13-.16-.19S117.46,414.56,117.44,414.61Z" style="fill:#263238"></path><path d="M84.46,397.91l5.89-4.81L81.4,382,72.71,389l.51.73c2.3,3.19,11.92,16.09,14.19,17.63C89.94,409.05,84.46,397.91,84.46,397.91Z" style="fill:#198764"></path><path d="M76,392.91a4.87,4.87,0,0,0,1.22-3.32A4.79,4.79,0,0,0,76,386.35l-3.1,2.5Z" style="fill:#198764"></path><path d="M87,403.49s1.71,4.07.84,4.09S76.72,394.94,72.71,389l.26-.18,11.78,14.88S86.42,402.86,87,403.49Z" style="fill:#198764"></path><path d="M72.84,388.6s0,.08.13.21.26.36.41.57l1.54,2.09c1.31,1.75,3.15,4.15,5.25,6.75s4,4.92,5.47,6.57l1.71,1.95c.17.2.33.37.47.52l.18.18-.15-.2-.45-.54-1.67-2c-1.4-1.67-3.33-4-5.43-6.6s-4-5-5.28-6.71c-.63-.81-1.16-1.5-1.58-2.06-.17-.2-.31-.39-.44-.55A2.15,2.15,0,0,0,72.84,388.6Z" style="fill:#263238"></path><path d="M84.58,403.79a6.25,6.25,0,0,1,1.26-.4,5.66,5.66,0,0,1,1.33.07,1.89,1.89,0,0,0-1.35-.24A2,2,0,0,0,84.58,403.79Z" style="fill:#263238"></path><path d="M83.6,399.18c0,.05.32.05.71,0a.36.36,0,1,0,0-.17C83.9,399.06,83.6,399.13,83.6,399.18Z" style="fill:#263238"></path><path d="M83.35,397.9c0,.05.25.13.58.18s.59.06.6,0-.25-.13-.57-.18S83.36,397.85,83.35,397.9Z" style="fill:#263238"></path><path d="M83.94,396.49s.14.31.39.64.5.56.53.53-.14-.32-.39-.64S84,396.46,83.94,396.49Z" style="fill:#263238"></path><path d="M84.52,395.7a1.5,1.5,0,0,0,.34.8c.27.4.59.63.62.59s-.22-.31-.48-.69S84.57,395.68,84.52,395.7Z" style="fill:#263238"></path><path d="M84.87,398.78a2.82,2.82,0,0,0,.58.71,6.24,6.24,0,0,0,.78.62,2.42,2.42,0,0,0,.53.29.5.5,0,0,0,.36,0,.36.36,0,0,0,.2-.34,1.69,1.69,0,0,0-1.68-1.31,1.9,1.9,0,0,0-.67.15c-.14.07-.21.13-.2.14a2.43,2.43,0,0,1,.87-.17,1.67,1.67,0,0,1,.88.29,1.45,1.45,0,0,1,.63.9c0,.18-.16.24-.34.18a2.87,2.87,0,0,1-.49-.26,7.41,7.41,0,0,1-.79-.58C85.11,399,84.89,398.76,84.87,398.78Z" style="fill:#263238"></path><path d="M85,399s.26,0,.56-.32a1.5,1.5,0,0,0,.36-.61.91.91,0,0,0-.11-.89.38.38,0,0,0-.51.05.92.92,0,0,0-.22.38,2.87,2.87,0,0,0-.16.68,1.29,1.29,0,0,0,0,.64s0-.24.08-.62a2.87,2.87,0,0,1,.19-.65c.07-.21.29-.5.46-.35a.85.85,0,0,1,.08.72,1.61,1.61,0,0,1-.3.57C85.21,398.88,85,399,85,399Z" style="fill:#263238"></path><path d="M76.06,386.38s.28.3.63.84a4.64,4.64,0,0,1,.7,2.39,4.58,4.58,0,0,1-.68,2.39c-.33.55-.64.82-.62.85a1.58,1.58,0,0,0,.23-.18,4.18,4.18,0,0,0,.5-.61,4.31,4.31,0,0,0,0-4.9,3.44,3.44,0,0,0-.51-.6A.78.78,0,0,0,76.06,386.38Z" style="fill:#263238"></path><path d="M81.6,383.81a24.91,24.91,0,0,0-2.36,1.74A26.36,26.36,0,0,0,77,387.43a23.5,23.5,0,0,0,2.36-1.74A24.57,24.57,0,0,0,81.6,383.81Z" style="fill:#263238"></path><path d="M78.25,393.44a8,8,0,0,0,1.14,1.75,7.7,7.7,0,0,0,1.44,1.51s-.59-.72-1.3-1.62S78.29,393.41,78.25,393.44Z" style="fill:#263238"></path><path d="M76.5,391.26s-.11.18-.21.39-.22.37-.19.41.22-.09.34-.33S76.55,391.26,76.5,391.26Z" style="fill:#263238"></path><path d="M76.86,389.62s-.11.16-.13.37,0,.38,0,.39.11-.16.13-.37S76.91,389.63,76.86,389.62Z" style="fill:#263238"></path><path d="M76.38,388.07s.09.19.16.4.08.39.13.4.13-.21,0-.46S76.41,388,76.38,388.07Z" style="fill:#263238"></path><path d="M75.93,387.06c-.05,0-.05.12,0,.25s.11.2.16.19.05-.13,0-.25S76,387.05,75.93,387.06Z" style="fill:#263238"></path><path d="M107,165a5.48,5.48,0,0,0-3.43,6,6.12,6.12,0,0,0-2.85,11.24,6.54,6.54,0,0,0,9.28,9,6.34,6.34,0,0,0,6.42,3.24,10.11,10.11,0,0,0,6.44-3.84,7.16,7.16,0,0,0,12.26-7,4.49,4.49,0,0,0,3.9-4.09,6.06,6.06,0,0,0-2.65-5.25s4.94-8.32-4.48-7.74" style="fill:#198764"></path><path d="M138.41,184.52s-.21-.09-.27-.44a1,1,0,0,1,.1-.62,1.06,1.06,0,0,1,.68-.54,1.33,1.33,0,0,1,1,.17,1.46,1.46,0,0,1,.63,1,2,2,0,0,1-1.43,2.08,2.59,2.59,0,0,1-2.49-.52,2.93,2.93,0,0,1-.94-1.85,1.58,1.58,0,0,1,.37-1.35c.28-.23.5-.18.5-.16s-.18.08-.35.3a1.42,1.42,0,0,0-.15,1.16,2.61,2.61,0,0,0,.88,1.53,2.16,2.16,0,0,0,2,.4,1.53,1.53,0,0,0,1.13-1.53,1,1,0,0,0-1.11-.9.82.82,0,0,0-.66.79C138.33,184.35,138.44,184.5,138.41,184.52Z" style="fill:#198764"></path><path d="M101.23,179.43s0,.44-.48,1a2.21,2.21,0,0,1-1.14.6,2.5,2.5,0,0,1-1.69-.31,3.28,3.28,0,0,1-1.39-1.54,5.12,5.12,0,0,1-.41-2.33,5.25,5.25,0,0,1,.77-2.51,3.48,3.48,0,0,1,2.33-1.6,2.9,2.9,0,0,1,2.63.76l-.41.3a7,7,0,0,1-.92-4.27,3.52,3.52,0,0,1,2.08-2.78,2.68,2.68,0,0,1,2.3.19,1.37,1.37,0,0,1,.58.61s-.2-.22-.67-.45a2.54,2.54,0,0,0-2.09,0,3.21,3.21,0,0,0-1.76,2.54,6.62,6.62,0,0,0,.94,4l.85,1.61-1.27-1.31a2.41,2.41,0,0,0-2.17-.61,3,3,0,0,0-2,1.37,4.7,4.7,0,0,0-.72,2.25,3.7,3.7,0,0,0,1.5,3.53,2.26,2.26,0,0,0,1.46.34,2.08,2.08,0,0,0,1.06-.46A2.88,2.88,0,0,0,101.23,179.43Z" style="fill:#198764"></path><path d="M110.86,164.69c0,.15-.89.23-2,.34a5.38,5.38,0,0,1-2,.05c0-.14.83-.46,2-.57S110.87,164.55,110.86,164.69Z" style="fill:#fff"></path><path d="M109.63,173.06c.07.13,0,.35-.23.49s-.43.17-.53.07,0-.33.23-.49S109.56,172.93,109.63,173.06Z" style="fill:#fff"></path><path d="M131.27,173.91a22.87,22.87,0,0,0-.83-11.66,3.29,3.29,0,0,1,2.74,2.22,7.21,7.21,0,0,1,.19,3.69,18.77,18.77,0,0,1-2.16,6.23" style="fill:#455a64"></path><path d="M133.41,167.55c.13,0,0,.65-.47,1.21s-1.05.79-1.12.67.31-.51.73-1S133.28,167.49,133.41,167.55Z" style="fill:#fff"></path><path d="M110.76,198.57l-1.27-29.17,11.7-8.86,10.63,5.2s.35,13.35,0,19.13-6.19,6.41-6.19,6.41l.35,6.55a7.61,7.61,0,0,1-7.07,8h0A7.63,7.63,0,0,1,110.76,198.57Z" style="fill:#ffbe9d"></path><path d="M130.66,175.47a.74.74,0,1,1-.74-.74A.74.74,0,0,1,130.66,175.47Z" style="fill:#263238"></path><path d="M131.38,174.66c-.1.1-.64-.37-1.44-.41s-1.4.34-1.48.23.06-.22.32-.4a2,2,0,0,1,2.33.14C131.35,174.43,131.43,174.62,131.38,174.66Z" style="fill:#263238"></path><path d="M122.08,175.47a.74.74,0,1,1-.74-.74A.74.74,0,0,1,122.08,175.47Z" style="fill:#263238"></path><path d="M122.54,174.66c-.1.1-.65-.37-1.44-.41s-1.4.34-1.48.23.06-.22.32-.4a2,2,0,0,1,2.33.14C122.51,174.43,122.58,174.62,122.54,174.66Z" style="fill:#263238"></path><path d="M122.78,182.15a14.71,14.71,0,0,0,3.86,1.33,2.26,2.26,0,0,1-2.65.75A1.65,1.65,0,0,1,122.78,182.15Z" style="fill:#fff"></path><path d="M125.63,191.28a14.49,14.49,0,0,1-7.67-2.59s1.74,4.25,7.55,4Z" style="fill:#eb996e"></path><path d="M125.41,181.4a4.91,4.91,0,0,1,1.31-.17c.2,0,.4,0,.45-.19a1.18,1.18,0,0,0-.12-.64c-.17-.52-.35-1.08-.54-1.65-.38-1.18-.71-2.25-.93-3a4.87,4.87,0,0,1-.29-1.28,5.85,5.85,0,0,1,.51,1.21c.27.76.63,1.82,1,3,.18.58.36,1.13.52,1.66a1.22,1.22,0,0,1,.08.83.49.49,0,0,1-.34.29,1.42,1.42,0,0,1-.34,0A6.09,6.09,0,0,1,125.41,181.4Z" style="fill:#263238"></path><path d="M112,176.69c1.81-.36,3.33-.61,3.85-.64a4.33,4.33,0,0,1-.11-1,4.65,4.65,0,0,1,5.55-4.58,4.6,4.6,0,0,1,2,.89,4.51,4.51,0,0,1,1.64,2.57,3.85,3.85,0,0,1,.1.83.94.94,0,0,1,0,.29s0-.4-.2-1.09a4.57,4.57,0,0,0-1.66-2.42,4.44,4.44,0,0,0-1.86-.81,4.5,4.5,0,0,0-2.31.2A4.43,4.43,0,0,0,116,175.1a4.41,4.41,0,0,0,.85,2.59,4.34,4.34,0,0,0,2,1.54,4.42,4.42,0,0,0,4.17-.61,4.57,4.57,0,0,0,1.66-2.42,5.28,5.28,0,0,0,.16-.84c-.15,0-.24-.07-.24-.11s.11-.09.27-.12v0a3,3,0,0,1,.55,0,2.83,2.83,0,0,1,.68.07s0,0,0-.06a4.72,4.72,0,0,1,.92-2.77,4.67,4.67,0,0,1,2.18-1.63,4.75,4.75,0,0,1,2.46-.18,4.56,4.56,0,0,1,2,.89,4.45,4.45,0,0,1,1.64,2.57,3.3,3.3,0,0,1,.1.83,1.29,1.29,0,0,1,0,.29s0-.4-.21-1.09a4.54,4.54,0,0,0-1.65-2.42,4.42,4.42,0,0,0-1.87-.81,4.52,4.52,0,0,0-2.31.2,4.43,4.43,0,0,0-2.88,4.12,4.48,4.48,0,0,0,.85,2.59,4.39,4.39,0,0,0,2,1.54,4.46,4.46,0,0,0,5.83-3c.19-.69.17-1.1.21-1.1a1.36,1.36,0,0,1,0,.3,3.3,3.3,0,0,1-.1.83,4.45,4.45,0,0,1-1.64,2.57,4.56,4.56,0,0,1-2,.89,4.66,4.66,0,0,1-2.46-.19,4.64,4.64,0,0,1-3.08-4.17,2.36,2.36,0,0,1-.69.08,3.83,3.83,0,0,1-.53,0v0a3.85,3.85,0,0,1-.1.83,4.51,4.51,0,0,1-1.64,2.57,4.63,4.63,0,0,1-7.38-2.66c-.49.16-2,.51-3.8.86a26,26,0,0,1-4,.64A26.17,26.17,0,0,1,112,176.69Z" style="fill:#263238"></path><path d="M110.82,167.65a4.55,4.55,0,0,0,9-1,4.51,4.51,0,0,0,3.44,2.76,3.11,3.11,0,0,0,3.39-2.42,3.24,3.24,0,1,0,4.1-4.18,4.18,4.18,0,0,0-.11-4.85,5.4,5.4,0,0,0-4.57-2,7.71,7.71,0,0,0-4.67,2,5.33,5.33,0,0,0-9.45,3.29,4.45,4.45,0,0,0-4.39,1.67,9.08,9.08,0,0,0-1.7,4.6,11.14,11.14,0,0,0,.66,5.92c.83,1.84,3,5.64,3.39,5.52C111.2,175.82,111.35,171.93,110.82,167.65Z" style="fill:#198764"></path><path d="M129.32,160.11s.33-.45,1.16-.57a2.56,2.56,0,0,1,2.68,1.49,2.66,2.66,0,0,1,.18,1.78,2.69,2.69,0,0,1-.74,1.24c-.63.56-1.18.58-1.18.53s.44-.23.91-.78a2.34,2.34,0,0,0-1.82-3.89C129.78,159.92,129.37,160.19,129.32,160.11Z" style="fill:#198764"></path><path d="M110.35,179.77a7.44,7.44,0,0,0-.31-2.86,2.71,2.71,0,0,0-2.09-1.8,2.3,2.3,0,0,0-2.35,1.9A2.83,2.83,0,0,0,107,179.8a3.69,3.69,0,0,0,3.21.09" style="fill:#ffbe9d"></path><path d="M108.66,178.93c0-.07-.31.08-.72-.05a1.3,1.3,0,0,1-.87-1.23,1,1,0,0,1,.21-.77.85.85,0,0,1,.63-.19c.43,0,.74.15.76.08s-.19-.27-.71-.42a1.17,1.17,0,0,0-1,.19,1.32,1.32,0,0,0-.4,1.14,1.72,1.72,0,0,0,.43,1.08,1.34,1.34,0,0,0,.85.46C108.44,179.27,108.71,179,108.66,178.93Z" style="fill:#eb996e"></path><path d="M109.8,176.93a42.59,42.59,0,0,1-2.16-5.34,15.88,15.88,0,0,1-.94-7.11,7.09,7.09,0,0,1,4-5.62,1.53,1.53,0,0,1,1-.11,1.19,1.19,0,0,1,.7,1.08,3.58,3.58,0,0,1-.26,1.33,44.7,44.7,0,0,0-2.12,16.07" style="fill:#455a64"></path><path d="M113.42,158.15a2.47,2.47,0,0,0-1.51-1.81,2,2,0,0,0-2.48.76,1.82,1.82,0,0,0,.2,2,2,2,0,0,0,1.9.67c.7-.12.31,2.18,1.64-1.22" style="fill:#455a64"></path><path d="M110.08,157.27A8,8,0,0,0,100.7,161a7,7,0,0,0,3.84,0,15.69,15.69,0,0,0,3.57-1.55,5.28,5.28,0,0,0,1.26-.88,1.89,1.89,0,0,0,.58-1.39" style="fill:#455a64"></path><path d="M110.55,156.88a6.37,6.37,0,0,1-1.5-2.1,5.63,5.63,0,0,1-.14-3.47A17.15,17.15,0,0,1,110.2,148a9.81,9.81,0,0,1,2,4.65,5.6,5.6,0,0,1-1.53,4.7" style="fill:#455a64"></path><path d="M109.93,168.49c0,.14-.54.35-1.24.57s-1.27.35-1.34.22.46-.5,1.19-.72S109.9,168.35,109.93,168.49Z" style="fill:#fff"></path><path d="M110.26,166.51c0,.15-.73.31-1.64.52s-1.65.38-1.71.24.64-.53,1.59-.75S110.26,166.37,110.26,166.51Z" style="fill:#fff"></path><path d="M111.29,162.63c0,.15-.91.22-2,.33s-2,.19-2,0a3.55,3.55,0,0,1,2-.56A3.47,3.47,0,0,1,111.29,162.63Z" style="fill:#fff"></path><path d="M112,160.84c0,.14-.81.1-1.76.22s-1.69.34-1.75.2.66-.59,1.69-.72S112,160.7,112,160.84Z" style="fill:#fff"></path><path d="M112.61,158.82c0,.15-.65.28-1.44.45s-1.45.31-1.51.18.55-.51,1.4-.69S112.61,158.68,112.61,158.82Z" style="fill:#fff"></path><path d="M109.57,170.73c.08.12-.19.42-.59.66s-.79.34-.87.22.19-.42.6-.66S109.5,170.6,109.57,170.73Z" style="fill:#fff"></path><path d="M107.51,159.76c-.13,0-.37-.58-.26-1.35s.5-1.3.62-1.23,0,.62-.11,1.3S107.66,159.73,107.51,159.76Z" style="fill:#fff"></path><path d="M105.12,160.39c-.12.06-.52-.56-.45-1.42s.54-1.43.65-1.35-.09.66-.14,1.38S105.26,160.33,105.12,160.39Z" style="fill:#fff"></path><path d="M103.09,161.08c-.11.11-.64-.47-.51-1.33s.8-1.26.86-1.13-.26.55-.34,1.2S103.21,161,103.09,161.08Z" style="fill:#fff"></path><path d="M111.93,154.63c0,.14-.56.29-1.25.45s-1.27.28-1.33.15.47-.48,1.21-.65S111.93,154.49,111.93,154.63Z" style="fill:#fff"></path><path d="M112.11,152.8c0,.14-.78.07-1.69.11s-1.65.15-1.7,0,.69-.5,1.68-.53S112.15,152.66,112.11,152.8Z" style="fill:#fff"></path><path d="M111.33,150.57c0,.14-.55.15-1.16.21s-1.13.14-1.19,0,.43-.46,1.14-.52S111.37,150.43,111.33,150.57Z" style="fill:#fff"></path><path d="M137.67,264.47s10.91,72.52,9.34,76-54.78,60-54.78,60l-16-19.4s44.28-49.42,44-50.75-15.69-71.82-15.69-71.82Z" style="fill:#263238"></path><path d="M84.39,378.62c.1.1,0,.42-.35.71s-.61.45-.71.35,0-.42.34-.72S84.29,378.51,84.39,378.62Z" style="fill:#455a64"></path><path d="M88.89,374.08c.1.1-.32.69-.94,1.32s-1.21,1.05-1.31,1,.32-.69.94-1.32S88.79,374,88.89,374.08Z" style="fill:#455a64"></path><path d="M93.39,369.55c.1.1-.32.69-.94,1.32s-1.21,1.05-1.31.95.32-.7.94-1.32S93.29,369.45,93.39,369.55Z" style="fill:#455a64"></path><path d="M97.89,365c.11.11-.31.7-.94,1.32s-1.2,1.05-1.31.95.32-.69.94-1.32S97.79,364.91,97.89,365Z" style="fill:#455a64"></path><path d="M102.4,360.48c.1.1-.32.69-.94,1.32s-1.21,1.05-1.31.95.31-.69.94-1.32S102.29,360.38,102.4,360.48Z" style="fill:#455a64"></path><path d="M106.9,356c.1.1-.32.69-.94,1.31s-1.21,1.06-1.31.95.32-.69.94-1.31S106.8,355.85,106.9,356Z" style="fill:#455a64"></path><path d="M111.4,351.41c.1.11-.32.69-.94,1.32s-1.21,1-1.31.95.32-.69.94-1.32S111.3,351.31,111.4,351.41Z" style="fill:#455a64"></path><path d="M114.71,348.08c.1.1,0,.42-.34.72s-.62.45-.72.35,0-.42.35-.72S114.61,348,114.71,348.08Z" style="fill:#455a64"></path><path d="M96.12,397.8a4.14,4.14,0,0,1-.73-.75c-.45-.49-1.08-1.23-1.84-2.15-1.52-1.85-3.56-4.44-5.72-7.38s-4-5.67-5.34-7.67c-.65-1-1.17-1.82-1.51-2.4a4.15,4.15,0,0,1-.49-.92,4.21,4.21,0,0,1,.66.81l1.65,2.3c1.38,1.95,3.29,4.63,5.45,7.57s4.15,5.56,5.59,7.46c.67.88,1.23,1.63,1.7,2.26A3.79,3.79,0,0,1,96.12,397.8Z" style="fill:#455a64"></path><path d="M129.92,262.48l7.75,2-6.59,10.45c3.62,19.55,10.86,60.87,9.93,73.4-1.23,16.62-4.13,67.52-4.13,67.52l-23.79-3.64,1.59-70.14L96.14,279.88a31.39,31.39,0,0,1,2.14-23.27l1.25-2.44" style="fill:#455a64"></path><path d="M119.65,404.91c.14,0,.23.35.21.76s-.17.74-.31.73-.24-.35-.21-.76S119.5,404.9,119.65,404.91Z" style="fill:#263238"></path><path d="M120.05,398.86c.14,0,.21.7.16,1.53s-.22,1.5-.36,1.49-.22-.69-.16-1.52S119.9,398.85,120.05,398.86Z" style="fill:#263238"></path><path d="M120.43,392.82c.14,0,.22.69.16,1.52s-.21,1.51-.35,1.5-.22-.7-.17-1.53S120.29,392.81,120.43,392.82Z" style="fill:#263238"></path><path d="M120.8,386.76c.14,0,.22.7.17,1.53s-.21,1.51-.35,1.5-.22-.69-.17-1.53S120.65,386.75,120.8,386.76Z" style="fill:#263238"></path><path d="M121.15,380.7c.14,0,.22.7.17,1.53s-.2,1.51-.34,1.5-.23-.69-.18-1.53S121,380.7,121.15,380.7Z" style="fill:#263238"></path><path d="M121.48,374.65c.14,0,.22.69.18,1.53s-.2,1.5-.34,1.49-.23-.69-.18-1.52S121.34,374.64,121.48,374.65Z" style="fill:#263238"></path><path d="M121.79,368.59c.14,0,.23.69.18,1.53s-.19,1.51-.33,1.5-.23-.69-.19-1.53S121.65,368.58,121.79,368.59Z" style="fill:#263238"></path><path d="M122.07,362.53c.14,0,.23.69.19,1.53s-.18,1.51-.33,1.5-.23-.69-.19-1.52S121.93,362.53,122.07,362.53Z" style="fill:#263238"></path><path d="M122.31,356.47c.14,0,.23.69.2,1.53s-.17,1.51-.32,1.5-.23-.68-.2-1.52S122.16,356.47,122.31,356.47Z" style="fill:#263238"></path><path d="M122.48,350.41c.15,0,.25.68.22,1.52s-.15,1.52-.3,1.51-.24-.68-.22-1.52S122.34,350.41,122.48,350.41Z" style="fill:#263238"></path><path d="M122.54,344.34c.14,0,.26.68.26,1.52s-.12,1.52-.27,1.51-.26-.68-.25-1.51S122.4,344.34,122.54,344.34Z" style="fill:#263238"></path><path d="M122.08,338.31c.15-.07.47.62.54,1.46s0,1.53-.16,1.54-.28-.67-.36-1.49S122,338.37,122.08,338.31Z" style="fill:#263238"></path><path d="M120.1,332.59c.14,0,.46.56.73,1.35s.37,1.47.24,1.52-.47-.56-.73-1.35S120,332.63,120.1,332.59Z" style="fill:#263238"></path><path d="M118.2,326.84c.13,0,.46.56.72,1.35s.36,1.48.22,1.53-.45-.57-.72-1.36S118.06,326.88,118.2,326.84Z" style="fill:#263238"></path><path d="M116.31,321.07c.14,0,.46.56.72,1.36s.36,1.48.22,1.52-.46-.56-.72-1.36S116.18,321.11,116.31,321.07Z" style="fill:#263238"></path><path d="M114.44,315.3c.14-.05.46.56.72,1.36s.35,1.48.22,1.52-.46-.56-.72-1.36S114.3,315.34,114.44,315.3Z" style="fill:#263238"></path><path d="M112.58,309.52c.14,0,.46.57.71,1.37s.36,1.48.22,1.52-.46-.57-.71-1.37S112.44,309.57,112.58,309.52Z" style="fill:#263238"></path><path d="M110.73,303.75c.14-.05.46.56.71,1.36s.35,1.48.22,1.53-.46-.57-.71-1.37S110.59,303.79,110.73,303.75Z" style="fill:#263238"></path><path d="M108.89,298c.14,0,.46.57.71,1.36s.35,1.48.21,1.53-.45-.57-.71-1.37S108.75,298,108.89,298Z" style="fill:#263238"></path><path d="M107.06,292.19c.14-.05.46.57.71,1.36s.34,1.49.21,1.53-.46-.57-.71-1.37S106.93,292.23,107.06,292.19Z" style="fill:#263238"></path><path d="M105.25,286.4c.13,0,.45.57.7,1.37s.34,1.48.2,1.52-.45-.57-.7-1.37S105.11,286.44,105.25,286.4Z" style="fill:#263238"></path><path d="M103.45,280.6c.14,0,.45.58.7,1.38s.33,1.48.2,1.52-.45-.57-.7-1.37S103.32,280.65,103.45,280.6Z" style="fill:#263238"></path><path d="M101.72,274.79c.14,0,.44.58.68,1.38s.31,1.49.17,1.53-.44-.58-.67-1.38S101.58,274.83,101.72,274.79Z" style="fill:#263238"></path><path d="M101.26,268.8c.14,0,.18.7.13,1.52s-.12,1.5-.26,1.51-.3-.68-.26-1.53S101.12,268.78,101.26,268.8Z" style="fill:#263238"></path><path d="M102.32,262.83c.14,0,.12.72,0,1.54s-.42,1.46-.57,1.43-.11-.71.06-1.54S102.18,262.8,102.32,262.83Z" style="fill:#263238"></path><path d="M103.47,258.46c.14,0,.16.39,0,.79s-.32.69-.46.65-.16-.39,0-.79S103.33,258.42,103.47,258.46Z" style="fill:#263238"></path><path d="M113.67,260.62a4.24,4.24,0,0,1-.22,2.12,8.39,8.39,0,0,1-7,6,6.54,6.54,0,0,1-2.54-.12h0c-.17,0-.25,0-.25,0s.07-.05.23-.09h0a12.82,12.82,0,0,0,2.45-.16,8.75,8.75,0,0,0,6.75-5.74C113.53,261.42,113.58,260.61,113.67,260.62Z" style="fill:#263238"></path><path d="M137.29,410.32a27.21,27.21,0,0,1-3.5-.57c-2.15-.39-5.12-.94-8.41-1.48s-6.28-1-8.44-1.28a29,29,0,0,1-3.5-.59,3.44,3.44,0,0,1,1,0c.61,0,1.49.11,2.58.22,2.18.22,5.19.6,8.49,1.14s6.26,1.14,8.39,1.63c1.07.25,1.93.46,2.52.63A3.23,3.23,0,0,1,137.29,410.32Z" style="fill:#263238"></path><path d="M172.69,229c.54-1.76,7.21-5.37,6.21-6.35-1.31-1.28-6.8,4.08-7.29,4.5s-1.1-.3-.63-.65c.67-.51,7.61-6,6.33-7.3-.7-.7-1.82.72-1.82.72s-6.13,5.65-6.71,5,2.9-4.07,4.15-5.14,1.26-2.1.35-2.27c-.62-.12-4.55,3.08-5.76,4.18s-4.51,4.15-4.08,1.29c0,0,0-.09,0-.13.5-2.8,0-5.12-.66-5.69a1,1,0,0,0-1.58.78,1,1,0,0,0,0,.41c0,.06,0,.15,0,.22a14.61,14.61,0,0,1-.19,2.9,7.69,7.69,0,0,1-.81,2.48c-.47.89-.91,1.64-1.3,2.26-4.47,2.46-17.3,9-30.16,9.93-2.32.18-18-21.22-18-21.22l-12.08,12c1.56,2.67,6.56,8.85,14.41,19.59C125.93,264,166.21,235,166.21,235h0l.38-.18a91.16,91.16,0,0,0,8.9-5c3.47-2.43,3.26-2.75,2.92-3.12C177.48,225.69,172.16,230.72,172.69,229Z" style="fill:#ffbe9d"></path><path d="M126.31,232.36a19.18,19.18,0,0,1-2.14-2.4c-1.26-1.54-3-3.7-4.75-6.14s-3.33-4.72-4.41-6.39a18.09,18.09,0,0,1-1.64-2.77,21.23,21.23,0,0,1,1.94,2.56l4.53,6.29c1.76,2.36,3.35,4.5,4.62,6.22A19.93,19.93,0,0,1,126.31,232.36Z" style="fill:#455a64"></path><path d="M100.57,200.27s-9.31,5.15-4.21,21.5a66.93,66.93,0,0,0,15.88,26.48l14.36-15.08a114.1,114.1,0,0,1-17.16-21.73l-8.84-11.18Z" style="fill:#263238"></path><path d="M144.1,204.33a3.51,3.51,0,0,1-.4.44l-1.21,1.2L138,210.31a20.83,20.83,0,0,1-3.44,2.68,9.61,9.61,0,0,1-4.83,1.39,15.78,15.78,0,0,1-5.47-1c-1.83-.6-3.62-1.47-5.46-2.28a27.25,27.25,0,0,0-5.51-1.89,11.93,11.93,0,0,0-5.33.11,14.34,14.34,0,0,0-7.55,4.9,19.61,19.61,0,0,0-3.05,5.4c-.52,1.37-.7,2.18-.74,2.16a2.14,2.14,0,0,1,.09-.58c.09-.39.23-1,.46-1.65a18.49,18.49,0,0,1,3-5.56,14.57,14.57,0,0,1,7.72-5.14,12.47,12.47,0,0,1,5.55-.14,26.68,26.68,0,0,1,5.62,1.92c1.86.81,3.63,1.67,5.41,2.27a15.53,15.53,0,0,0,5.3,1,9.31,9.31,0,0,0,4.62-1.28,20.32,20.32,0,0,0,3.41-2.59l4.64-4.21,1.28-1.12A2.76,2.76,0,0,1,144.1,204.33Z" style="fill:#fff"></path><path d="M120.4,226.44a7.27,7.27,0,0,0-2.6,1.38,10.31,10.31,0,0,0-2,2.47c-.65,1-1.25,2.26-2,3.48a10.1,10.1,0,0,1-2.79,3,9.53,9.53,0,0,1-3,1.38,9,9,0,0,1-2.24.25,2,2,0,0,1-.81-.12,19,19,0,0,0,3-.49,9.74,9.74,0,0,0,2.87-1.41,10,10,0,0,0,2.63-2.89c.75-1.19,1.37-2.41,2.06-3.46a10.2,10.2,0,0,1,2.21-2.5,5.59,5.59,0,0,1,2-1A1.67,1.67,0,0,1,120.4,226.44Z" style="fill:#fff"></path><path d="M126.87,232.82a16.51,16.51,0,0,1-1.87,2.42c-1.23,1.45-3,3.38-5,5.41s-4,3.76-5.48,5a15.36,15.36,0,0,1-2.45,1.83,20.6,20.6,0,0,1,2.21-2.11c1.4-1.27,3.31-3,5.36-5.06s3.84-3.91,5.13-5.28A19.21,19.21,0,0,1,126.87,232.82Z" style="fill:#455a64"></path><path d="M100.21,232.64a83.76,83.76,0,0,1,5.71,7.31,80.92,80.92,0,0,1,5.28,7.62,84.92,84.92,0,0,1-5.7-7.31A82.3,82.3,0,0,1,100.21,232.64Z" style="fill:#455a64"></path></g></svg>